<svg width="582" height="599" viewBox="0 0 582 599" fill="none" xmlns="http://www.w3.org/2000/svg">
<path fill-rule="evenodd" clip-rule="evenodd" d="M340.281 42.2012C394.49 49.2234 434.153 95.1621 468.819 137.418C500.818 176.422 521.155 222.404 528.997 272.236C536.877 322.308 545.129 380.328 513.248 419.736C482.01 458.352 418.912 440.91 374.518 463.195C330.064 485.511 305.857 541.527 256.614 548.565C200.959 556.52 138.33 542.422 98.6193 502.629C58.8495 462.777 59.2497 400.293 52.8362 344.366C46.6686 290.583 35.2092 233.07 62.3351 186.22C89.0194 140.132 146.03 126.233 193.32 101.73C241.424 76.8044 286.548 35.2405 340.281 42.2012Z" fill="#CDCEB2"/>
<path d="M324.47 233.211C321.641 232.821 319.849 230.439 317.335 229.568C315.402 228.904 313.976 228.257 314.15 231.443C314.283 233.817 312.557 235.252 310.243 235.426C307.928 235.6 306.003 234.464 305.622 232.174C305.132 229.261 304.037 228.589 301.549 230.157C300.81 230.622 299.939 230.912 299.483 229.883C299.168 229.162 299.815 228.672 300.387 228.224C306.302 223.843 320.148 226.05 324.586 232.124C324.702 232.306 324.536 232.663 324.47 233.211ZM311.885 230.722C311.826 230.45 311.713 230.193 311.551 229.967C311.39 229.74 311.184 229.549 310.947 229.405C310.71 229.261 310.445 229.166 310.17 229.127C309.895 229.088 309.615 229.106 309.347 229.178C309.066 229.196 308.794 229.28 308.553 229.425C308.312 229.569 308.11 229.769 307.962 230.008C307.814 230.247 307.725 230.518 307.704 230.798C307.682 231.078 307.728 231.359 307.837 231.618C307.879 231.894 307.98 232.159 308.132 232.393C308.284 232.628 308.485 232.827 308.721 232.978C308.956 233.128 309.221 233.227 309.498 233.267C309.775 233.308 310.057 233.288 310.326 233.211C310.608 233.174 310.878 233.074 311.117 232.919C311.356 232.765 311.557 232.559 311.707 232.316C311.856 232.074 311.95 231.801 311.98 231.518C312.011 231.235 311.979 230.949 311.885 230.68V230.722Z" fill="#303A25"/>
<path d="M288.391 231.593C285.563 231.203 283.771 228.821 281.257 227.95C279.324 227.286 277.897 226.639 278.072 229.825C278.204 232.198 276.479 233.634 274.164 233.808C271.85 233.982 269.925 232.846 269.544 230.556C269.054 227.643 267.959 226.971 265.471 228.531C264.732 229.004 263.861 229.294 263.405 228.265C263.09 227.544 263.737 227.054 264.309 226.606C270.224 222.225 284.069 224.432 288.508 230.506C288.624 230.688 288.458 231.045 288.391 231.593ZM275.807 229.062C275.748 228.79 275.634 228.534 275.473 228.307C275.312 228.081 275.106 227.89 274.869 227.745C274.631 227.601 274.367 227.507 274.092 227.468C273.817 227.429 273.537 227.446 273.268 227.519C272.988 227.535 272.717 227.618 272.475 227.762C272.234 227.905 272.031 228.104 271.883 228.343C271.735 228.581 271.647 228.851 271.625 229.131C271.603 229.411 271.649 229.692 271.759 229.95C271.8 230.227 271.9 230.492 272.052 230.728C272.204 230.963 272.404 231.164 272.64 231.315C272.875 231.467 273.141 231.566 273.418 231.607C273.695 231.648 273.978 231.629 274.247 231.551C274.525 231.513 274.79 231.414 275.025 231.262C275.26 231.11 275.459 230.908 275.608 230.671C275.756 230.433 275.851 230.166 275.886 229.888C275.92 229.61 275.893 229.328 275.807 229.062Z" fill="#303A25"/>
<path d="M340.405 288.671C331.612 291.011 322.694 290.422 313.784 289.642C312.2 289.509 310.823 288.763 309.744 291.003C303.755 303.449 296.048 307.598 282.186 306.403C281.149 305.424 280.527 304.37 281.589 303.018C283.248 301.997 285.082 302.429 286.832 302.146C293.817 301.018 300.462 299.259 303.548 291.808C305.132 287.958 304.717 287.252 300.827 285.842C293.087 283.029 286.425 278.333 279.897 273.454C277.499 271.653 275.201 269.72 271.933 267.645C272.016 276.532 271.303 284.614 272.406 292.687C272.605 294.156 273.517 295.575 272.406 297.027C270.805 297.857 269.386 297.292 267.993 296.488C267.364 295.583 266.553 294.82 265.611 294.249C264.669 293.677 263.618 293.309 262.526 293.169C243.305 290.148 224.731 283.651 205.178 282.515C194.593 281.901 184.34 283.685 174.277 287.078C165.26 290.115 156.798 294.115 149.697 300.429C143.393 306.03 138.241 312.801 133.438 319.712C119.02 340.456 105.523 361.839 93.9341 384.35L92.9801 386.192C91.8187 388.432 92.4823 389.221 94.9544 388.831C104.119 387.444 113.409 387.08 122.653 387.744C137.071 388.656 151.605 389.055 165.55 393.651C168.719 394.697 171.681 396.141 174.675 397.477C176.932 398.447 178.45 398.306 179.653 395.759C184.323 385.736 189.989 376.202 195.63 366.718C201.033 357.575 206.998 348.777 213.49 340.373C214.649 339.384 215.743 338.323 216.767 337.195C223.661 332.947 230.978 329.835 239.165 329.254C248.639 328.582 257.98 326.267 267.57 326.939C270.058 327.114 272.547 327.047 274.53 328.964C275.425 330.889 275.948 333.113 278.105 334.167C278.047 339.245 274.032 341.228 270.448 343.617C274.87 346.414 280.975 347.385 280.818 354.23C280.71 358.702 277.002 359.823 273.161 361.432C275.127 362.976 276.935 364.278 278.603 365.739C284.235 370.717 283.406 376.949 276.711 380.367C270.797 383.396 264.467 383.255 258.096 382.782C256.777 383.213 255.607 382.574 254.313 382.375C252.654 382.126 250.995 380.566 249.269 382.176C246.988 383.744 248.498 386.881 246.598 388.59C242.45 397.178 240.866 406.745 236.834 415.333C232.156 425.29 228.771 435.886 222.226 444.963C212.321 458.687 201.976 471.98 185.41 478.153C159.984 487.654 140.323 483.223 124.172 458.687C117.942 449.22 115.876 437.537 116.415 426.12C116.805 418.204 115.66 413.25 106.751 411.433C99.6166 409.989 93.2207 406.023 87.7373 400.97C86.8247 400.14 85.879 399.31 85.008 398.439C82.1128 395.51 80.8602 392.863 83.2825 388.399C91.9265 372.377 99.8737 355.914 109.828 340.697C117.178 329.528 124.337 318.211 132.475 307.507C143.932 292.497 158.797 283.17 176.998 278.523C193.913 274.209 210.728 275.404 227.46 278.913C239.995 281.544 252.347 284.954 264.79 288.132C266.773 288.646 267.213 288.024 267.279 286.248C267.539 277.553 267.838 268.854 268.175 260.153C268.192 259.464 268.028 258.782 267.699 258.176C267.37 257.57 266.888 257.062 266.3 256.701C259.336 251.598 254.458 244.143 252.571 235.717C252.007 233.227 251.153 231.419 247.959 232.116C246.448 232.312 244.914 232.22 243.438 231.842C237.896 230.838 234.636 226.863 235.092 221.827C235.565 216.516 239.456 212.898 244.947 212.699C245.503 212.699 246.059 212.699 246.607 212.699C247.013 213.096 247.291 213.605 247.405 214.161C247.519 214.717 247.463 215.295 247.245 215.819C246.781 216.964 245.702 217.288 244.665 217.636C241.845 218.574 240.833 220.599 241.347 223.387C241.861 226.174 244.101 226.905 246.548 227.137C248.058 227.278 249.535 226.855 251.036 226.755C252.545 226.574 254.075 226.821 255.45 227.469C256.462 228.207 256.42 229.352 256.603 230.431C258.32 241.002 263.936 249.034 272.904 254.643C280.221 259.137 288.538 261.745 297.11 262.235C307.762 262.991 320.379 252.776 323.523 240.977C324.353 237.791 324.411 234.422 325.713 231.336C327.865 229.793 330.125 228.406 332.474 227.187C335.237 226.208 338.804 226.241 339.6 222.532C340.571 218.026 336.083 217.611 333.885 215.471C333.188 214.102 332.408 212.724 333.752 211.322C335.477 211.227 337.202 211.484 338.825 212.076C340.448 212.668 341.933 213.583 343.192 214.765C347.506 218.914 347.282 224.722 342.446 228.274C339.93 230.266 336.794 231.312 333.586 231.228C331.413 231.095 330.782 231.875 330.55 233.924C330.158 238.171 329.358 242.369 328.161 246.462C326.078 253.226 321.458 258.921 315.269 262.352C313.502 263.381 312.548 264.592 312.349 266.5C311.769 272.11 311.312 277.735 310.69 283.336C310.408 285.759 311.005 286.755 313.677 286.838C322.91 287.111 332.151 287.85 341.11 284.713C342.271 286.265 342.653 287.692 340.405 288.671Z" fill="#FEFBF5"/>
<path d="M365.01 281.204C394.758 277.885 420.491 287.211 443.122 306.096C459.049 319.422 471.526 335.727 483.355 352.612C487.876 359.067 491.651 365.963 495.907 372.584C498.893 377.247 498.735 380.359 495.127 384.466C490.188 390.266 484.195 395.078 477.465 398.647C474.653 400.082 474.57 401.269 475.475 403.99C478.171 412.097 481.879 419.88 483.687 428.26C486.325 440.507 487.005 452.97 484.6 465.251C481.929 479.025 472.654 487.057 459.14 488.84C456.939 489.02 454.724 488.903 452.554 488.492C433.781 486.003 419.637 476.137 408.587 461.11C403.751 454.547 399.644 447.527 395.148 440.756C394.037 438.375 393.763 435.421 390.743 434.342C387.425 429.671 387.184 424.037 385.865 418.751C384.497 413.308 384.497 413.317 378.93 414.42C373.008 415.674 366.949 416.156 360.904 415.856C357.511 415.64 354.4 414.744 352.442 411.599C352.285 408.462 353.172 405.467 353.645 402.405C356.166 399.003 359.576 396.361 363.5 394.772C361.012 394.954 357.304 395.601 355.205 391.627C354.464 388.68 354.486 385.593 355.271 382.657C358.05 379.089 361.974 378.691 365.724 378.26C364.429 377.197 362.173 376.55 360.398 375.14C356.25 371.821 356.25 367.265 360.945 364.818C369.241 360.445 378.325 358.18 387.616 356.827C388.237 357.053 388.899 357.145 389.558 357.097C390.217 357.048 390.859 356.86 391.44 356.545C403.054 353.682 410.337 356.379 417.231 366.129C420.035 370.087 422.159 374.426 424.415 378.708C425.892 381.496 427.468 382.35 430.653 381.504C446.415 377.297 462.517 374.866 478.469 371.671C483.239 370.717 483.853 370.078 481.157 365.863C473.749 354.247 466.225 342.63 457.15 332.175C449.194 322.998 441.247 313.821 431.433 306.453C414.502 293.733 395.721 286.414 374.326 286.414C371.116 286.414 367.69 287.435 364.72 285.153C364.328 284.554 364.144 283.843 364.197 283.129C364.249 282.415 364.535 281.739 365.01 281.204Z" fill="#FEFBF5"/>
<path d="M246.615 216.018V212.699C248.888 200.734 256.462 192.711 266.848 186.147C262.385 184.065 256.595 183.276 256.893 177.427C257.234 171.22 263.53 170.498 268.026 167.835C266.801 166.861 265.5 165.987 264.135 165.221C255.765 161.388 255.143 151.945 261.506 145.722C263.903 143.357 263.356 142.486 260.676 141.258C258.428 140.221 256.487 138.545 254.255 137.491C243.413 132.338 240.037 122.871 239.074 111.86C237.913 98.061 244.599 88.7594 256.213 82.8267C272.431 74.5209 289.96 72.9361 307.828 74.579C313.251 75.1349 318.386 77.2926 322.578 80.7772C329.082 86.0462 336.863 89.7385 341.874 96.8412C345.385 101.636 348.063 106.988 349.796 112.673C351.621 119.087 350.194 125.119 346.295 130.703C338.622 141.722 327.97 147.995 315.104 150.808C312.242 151.431 310.807 151.879 311.877 155.438C313.171 159.753 311.595 163.595 307.77 166.291C306.551 167.121 305.356 168.067 303.855 169.171C306.526 171.369 308.948 173.46 310.74 176.248C312.831 179.501 312.341 182.206 309.413 185.309C322.545 189.516 330.218 198.536 333.827 211.239L334.822 215.487C336.896 220.657 336.175 225.038 332.748 228.025C330.923 229.917 328.899 231.419 326.112 231.344C320.861 232.655 316.066 230.564 311.354 228.962C305.108 226.838 299.002 224.191 294.763 218.674C293.353 216.84 291.677 216.591 289.786 218.084C287.737 219.744 285.381 220.914 283.307 222.482C276.454 227.676 268.316 228.29 260.253 229.12C258.594 229.303 256.935 229.22 255.616 227.925C253.998 227.925 252.339 228.299 250.788 227.51C248.988 226.263 247.619 224.488 246.872 222.429C246.124 220.37 246.035 218.13 246.615 216.018Z" fill="#303A25"/>
<path d="M391.431 357.408C390.519 358.926 389.54 359.789 388.279 357.715C386.869 356.097 387.159 354.097 387.118 352.197C386.869 346.836 386.212 341.502 385.152 336.241C383.924 329.495 379.801 325.288 374.052 322.243C371.975 321.165 369.807 320.271 367.573 319.571C362.189 317.837 359.278 314.037 359.161 308.552C359.029 301.126 357.635 293.758 358.174 286.307C358.1 285.046 358.1 283.783 358.174 282.523C358.174 282.257 358.224 281.901 358.066 281.743C355.769 279.453 349.505 280.639 348.112 283.618C347.866 285.046 347.736 286.492 347.722 287.941C347.174 294.131 346.668 300.296 346.577 306.519C346.486 312.328 343.557 316.709 338.422 319.538C336.105 320.87 334.218 322.837 332.983 325.207C331.748 327.577 331.218 330.251 331.454 332.914C331.67 335.121 333.113 334.806 334.432 334.573C337.701 334.034 340.969 333.478 344.213 332.847C345.872 332.54 347.465 332.2 349.115 332.018C358.058 331.238 359.784 333.013 359.261 341.975C358.904 347.899 359.078 353.84 359.161 359.764C359.244 364.967 357.652 370.053 358.489 375.339C358.846 377.612 357.544 379.869 356.474 381.977L356.042 392.316C356.577 393.903 356.749 395.591 356.545 397.254C356.342 398.917 355.767 400.513 354.864 401.924C354.085 404.944 354.823 408.297 352.898 411.051C352.508 413.176 350.791 413.823 349.074 414.37C346.972 415.053 344.798 415.49 342.595 415.673C336.133 416.221 336.141 416.204 336.606 423.025C336.813 426.045 336.664 429.074 337.17 432.102C337.999 437.122 340.953 440.234 345.582 441.918C355.536 445.528 365.748 446.216 376.167 445.237C376.838 445.083 377.521 444.989 378.208 444.955C383.559 445.386 386.446 443.03 387.142 437.645C387.441 435.388 388.47 433.264 391.547 434.11C395.77 434.683 395.803 437.554 395.198 440.748C392.211 450.34 390.469 451.726 380.108 451.842C368.56 451.975 357.029 452.755 345.714 448.813C334.1 444.756 330.724 441.287 329.563 428.899C328.177 414.088 326.244 399.302 325.722 384.458C325.183 368.618 323.324 352.836 323.648 336.955C323.829 332.03 324.583 327.143 325.896 322.392C326.875 318.625 329.795 316.443 333.18 314.983C337.195 313.265 338.986 310.004 339.343 305.988C339.882 300.238 340.065 294.446 340.397 288.671L341.069 284.705C341.155 284.433 341.224 284.156 341.276 283.875C341.774 280.465 340.505 275.794 344.047 274.167C349.181 271.785 354.98 271.249 360.464 272.649C362.563 273.188 363.276 274.922 363.848 276.881C364.255 278.308 363.898 279.951 365.002 281.17L365.093 285.444C366.652 286.804 366.453 288.68 366.478 290.422C366.545 295.251 366.578 300.089 366.478 304.918C366.395 309.938 368.403 313.257 373.272 315.024C378.142 316.792 382.58 319.173 386.106 323.089C391.664 329.313 392.112 337.195 392.916 344.796C393.373 349.044 393.588 353.433 391.431 357.408Z" fill="#303A25"/>
<path d="M281.805 303.234C281.929 304.287 282.053 305.349 282.186 306.403C283.667 314.153 283.209 322.149 280.851 329.678C280.339 331.394 279.397 332.951 278.113 334.2C273.625 334.474 273.252 334.009 274.554 329.819C274.296 328.454 274.405 327.045 274.869 325.736C276.269 320.881 276.987 315.854 277.001 310.801C273.028 313.539 268.167 314.742 263.372 316.003C246.515 320.426 229.625 320.982 212.685 316.261C209.434 315.34 209.002 315.846 209.724 319.239C210.819 324.417 213.192 329.113 215.606 333.768C216.369 335.245 217.265 336.631 217.124 338.398C216.984 339.111 216.627 339.762 216.1 340.261C215.574 340.761 214.905 341.084 214.187 341.186C211.532 341.576 210.122 339.809 208.853 337.984C201.586 327.578 199.927 315.92 201.611 303.665C202.233 299.176 207.194 295.426 212.909 294.803C217.825 294.149 222.775 293.78 227.734 293.7C234.885 293.7 242.027 293.791 249.194 293.127C255.582 292.53 262.152 292.364 268.092 295.757L272.348 296.836C277.051 296.936 280.842 299.491 281.805 303.234Z" fill="#303A25"/>
<path d="M246.607 388.623C246.905 386.059 245.196 382.881 248.855 381.355C250.464 381.695 251.003 383.014 251.343 384.35C253.923 395.535 256.561 406.753 257.665 418.187C257.693 418.734 257.626 419.282 257.466 419.805C254.894 424.078 250.962 427.223 247.951 431.14C247.063 432.293 245.586 433.056 245.404 435.205C256.404 432.459 267.445 431.181 278.885 429.82C274.206 426.684 269.104 425.514 264.235 423.83C261.58 422.909 259 421.954 258.03 418.917C256.702 409.624 254.952 400.414 253.202 391.204C252.759 389.175 252.633 387.09 252.828 385.022C253.019 383.504 253.218 381.911 255.234 381.703C255.77 381.681 256.306 381.77 256.805 381.966C257.305 382.161 257.759 382.459 258.138 382.84C261.746 389.179 261.73 396.39 262.41 403.26C263.355 412.802 265.371 420.336 276.753 421.954C281.067 422.568 285.049 425.472 289.155 427.472C290.748 428.252 292.473 429.314 292.1 431.496C291.726 433.679 289.81 434.127 288.043 434.542C281.052 436.093 273.952 437.111 266.806 437.587C259.382 438.151 252.098 439.528 244.724 440.325C242.027 440.607 238.311 441.985 236.693 439.072C234.976 435.936 238.079 433.529 240.012 431.272C242.5 428.327 244.881 425.174 247.843 422.776C251.8 419.581 252.729 415.872 251.65 411.201C249.875 403.667 248.266 396.141 246.607 388.623Z" fill="#303A25"/>
<path d="M121.094 418.345C121.559 413.184 121.335 405.019 123.102 397.012C123.492 395.245 123.757 394.265 125.939 394.689C137.403 396.954 149.291 396.614 160.54 400.422C165.277 402.032 169.557 404.571 174.145 406.463C175.679 407.093 175.621 407.998 175.032 409.392C173.417 413.192 171.908 417.039 170.503 420.934C170.063 422.137 169.408 423.871 171.05 424.585C172.693 425.298 173.348 423.572 173.921 422.377C181.602 406.363 189.898 390.684 198.807 375.339C203.959 366.494 210.604 358.694 215.332 349.658C220.384 339.983 229.476 336.324 239.141 335.337C248.424 334.391 257.781 333.046 267.197 333.461C268.607 333.519 270.623 332.839 270.988 334.905C271.286 336.565 269.735 337.552 268.333 338.224C265.206 339.676 262.045 341.062 258.893 342.456C257.59 343.028 256.18 343.642 256.354 345.31C256.553 347.243 258.262 347.534 259.78 347.642C263.621 347.924 267.553 347.642 270.921 350.089C272.24 351.044 274.074 351.749 273.634 353.79C273.252 355.582 271.427 355.599 269.959 355.956C267.014 356.669 264.069 357.375 261.149 358.204C259.44 358.686 257.283 359.225 257.59 361.523C257.872 363.664 259.921 364.013 261.796 364.013C266.458 363.955 269.909 366.411 273.028 369.448C275.716 372.07 275.31 374.302 271.9 375.762C267.32 377.818 262.123 378.029 257.391 376.351C255.442 375.679 253.575 374.766 251.642 374.044C245.562 371.763 244.4 372.8 242.052 378.857C235.839 394.896 230.97 411.433 224.2 427.281C217.249 443.553 207.866 458.812 193.382 468.47C169.939 484.094 145.533 482.808 129.075 456.721C122.504 446.316 120.804 433.737 121.094 418.345Z" fill="#CDCEB2"/>
<path d="M255.201 381.678C252.712 383.827 253.832 386.698 254.197 389.063C255.781 399.236 256.76 409.508 259.232 419.531C259 420.685 256.619 416.412 257.382 420.262C257.432 420.494 256.735 420.527 256.354 420.369C257.357 415.067 256.445 409.873 254.861 404.886C252.372 397.145 251.791 388.955 248.854 381.355C249.087 380.035 249.726 379.479 251.094 380.06C252.463 380.641 253.832 381.139 255.201 381.678Z" fill="#FEFBF5"/>
<path d="M477.705 447.336C478.286 455.136 477.506 462.147 474.719 468.985C470.48 479.365 462.035 484.078 451.01 482.493C434.527 480.12 422.987 470.686 413.497 457.733C408.91 451.485 405.135 444.764 400.929 438.3C396.524 431.53 394.442 424.037 393.289 416.212C391.945 407.085 387.88 404.48 379.311 407.55C373.338 409.682 367.116 409.624 360.92 409.79C359.634 409.79 358.348 409.574 357.875 408.131C357.361 406.562 358.381 405.492 359.368 404.521C364.138 399.841 370.07 397.294 376.333 395.394C378.075 394.967 379.783 394.413 381.443 393.734C383.102 392.905 385.591 392.266 384.828 389.81C384.131 387.611 381.866 387.636 379.85 388.15C374.326 389.416 368.652 389.896 362.994 389.577C362.446 389.577 361.89 389.577 361.334 389.577C360.082 389.503 358.763 389.494 358.539 387.81C358.331 386.308 359.211 385.495 360.455 384.981C364.79 383.152 369.431 382.161 374.135 382.06C375.521 382.099 376.908 382.025 378.282 381.836C379.593 381.587 381.302 381.413 381.41 379.645C381.526 377.72 379.834 377.007 378.382 376.832C373.844 376.285 369.978 374.235 366.204 371.912C365.308 371.364 363.889 371.033 363.906 369.78C363.923 368.527 365.374 368.236 366.345 367.896C377.071 364.17 387.988 361.499 399.469 361.698C404.289 361.781 406.935 364.784 409.217 368.336C415.853 378.882 420.117 390.606 425.435 401.8C428.62 408.521 431.582 415.358 434.659 422.137C434.952 422.764 435.282 423.374 435.646 423.962C435.891 424.465 436.235 424.914 436.656 425.283C437.077 425.651 437.568 425.931 438.099 426.107C438.63 426.282 439.191 426.35 439.749 426.305C440.306 426.26 440.849 426.104 441.346 425.846C443.834 424.742 443.502 422.527 442.656 420.511C440.051 414.428 437.355 408.38 434.618 402.356C432.854 398.483 431.009 394.625 429.085 390.781C428.255 389.121 427.99 388.391 430.379 387.76C438.832 385.528 447.534 385.072 456.095 383.612C458.949 383.122 460.077 384.806 461.205 386.765C466.05 395.162 469.086 404.272 471.94 413.483C475.407 424.701 479.016 435.869 477.705 447.336Z" fill="#CDCEB2"/>
<path d="M244.864 111.188C245.055 98.1107 250.232 90.1534 262.41 85.5068C277.226 79.8562 292.83 76.9189 308.268 80.6362C320.711 83.6399 330.558 91.8544 336.025 104.168C336.249 104.674 336.415 105.213 336.672 105.695C344.329 119.8 339.567 128.928 325.232 138.885C322.453 140.818 319.052 141.913 315.858 143.183C310.881 145.174 306.542 145.174 301.2 142.112C291.627 136.636 280.735 137.234 270.199 139.922C269.036 140.292 267.802 140.383 266.597 140.187C265.392 139.991 264.25 139.514 263.264 138.793C261.628 137.532 259.91 136.382 258.121 135.35C248.216 130.272 244.3 121.974 244.864 111.188Z" fill="#CDCEB2"/>
<path d="M287.197 186.479C296.049 186.886 304.718 188.238 312.715 192.354C322.371 197.332 329.231 210.169 328.194 220.98C327.763 225.453 326.826 226.316 322.512 225.478C314.465 223.918 306.692 221.694 300.669 215.579C299.103 214.033 297.774 212.263 296.729 210.326C294.639 206.385 292.581 206.385 289.57 209.613C281.473 218.375 272.025 224.474 259.532 224.897C256.553 225.005 255.434 223.959 254.463 221.478C250.788 212.027 254.687 204.452 260.602 197.681C267.562 189.748 276.629 186.222 287.197 186.479Z" fill="#CDCEB2"/>
<path d="M285.869 165.545C282.651 165.727 280.519 165.545 278.536 166.018C273.202 167.279 269.295 164.931 265.57 161.587C261.845 158.243 261.364 153.862 264.351 149.895C267.337 145.929 271.203 143.357 276.479 143.033C282.286 142.668 288.043 142.884 293.634 144.693C297.284 145.871 300.453 147.796 302.278 151.331C303.821 154.31 305.273 157.762 303.149 160.715C301.026 163.669 297.782 166.059 293.394 165.636C290.889 165.467 288.377 165.437 285.869 165.545Z" fill="#CDCEB2"/>
<path d="M284.94 170.913C291.328 170.083 297.151 171.469 301.78 176.389C302.95 177.634 304.601 178.937 303.174 181.011C301.963 182.762 300.461 183.251 298.197 182.861C290.822 181.584 283.397 181.277 276.006 182.861C272.132 183.691 268.631 182.646 265.321 180.704C264.011 179.924 262.534 179.094 262.733 177.302C262.899 175.792 264.259 175.07 265.52 174.489C271.547 171.55 278.262 170.313 284.94 170.913Z" fill="#CDCEB2"/>
<path d="M350.5 357.358C350.409 373.074 348.841 388.698 347.921 404.355C347.738 407.542 346.552 408.911 343.507 408.853C340.753 408.803 337.85 409.243 335.295 408.504C331.503 407.4 333.967 403.799 333.461 401.418C331.927 393.856 331.228 386.148 331.379 378.434C331.479 367.116 329.961 355.89 329.795 344.588C329.753 342.041 330.176 340.904 332.889 340.589C337.534 340.058 342.138 339.195 346.751 338.357C349.497 337.859 350.741 338.448 350.575 341.634C350.31 346.862 350.5 352.114 350.5 357.358Z" fill="#CDCEB2"/>
<path d="M359.119 285.975L346.676 287.186C345.996 285.867 346.618 284.697 347.016 283.452C350.774 280.83 354.714 279.602 359.103 281.901C359.078 283.261 359.078 284.622 359.119 285.975Z" fill="#CDCEB2"/>
<path d="M235.83 313.68C227.427 313.887 219.762 313.323 212.304 310.983C208.621 309.822 206.248 307.772 207.045 303.474C207.318 302.03 207.874 300.728 209.533 300.645C225.751 299.815 241.977 299.342 258.22 299.549C262.652 299.507 267.04 300.421 271.087 302.229C272.057 302.686 273.351 302.86 273.343 304.279C273.343 305.499 272.414 306.262 271.452 306.826C269.007 308.098 266.392 309.009 263.687 309.531C254.305 311.838 244.98 314.369 235.83 313.68Z" fill="#CDCEB2"/>
<path d="M288.176 248.852C288.517 248.833 288.86 248.853 289.197 248.91C290.466 249.25 291.329 249.084 291.685 247.765C291.967 246.628 291.635 246.105 290.283 245.723C286.816 244.653 286.31 242.197 289.014 239.915C292.216 237.194 292.988 233.568 294.63 230.265C294.929 229.668 294.838 228.514 295.875 228.738C297.069 228.996 296.43 230.099 296.115 230.738C294.398 234.298 293.411 238.14 289.935 241.027C288.276 242.438 288.848 244.031 291.071 244.454C292.498 244.728 293.801 245.64 295.443 245.026C295.991 244.827 296.53 244.943 296.646 245.433C296.762 245.923 296.298 246.221 295.816 246.396C294.846 246.744 293.469 246.528 293.286 247.906C293.178 248.81 292.457 249.914 294.531 249.739C296.132 249.598 297.019 250.677 298.065 251.399C299.11 252.121 299.724 253.15 301.283 253.009C301.905 252.951 302.552 253.117 302.428 253.838C302.329 254.386 301.673 254.527 301.225 254.452C299.002 254.121 297.351 255.398 295.501 256.112C290.615 257.929 285.605 255.971 284.344 251.706C283.97 250.619 285.837 249.208 288.176 248.852Z" fill="#303A25"/>
</svg>
