<svg xmlns="http://www.w3.org/2000/svg" viewBox="0 0 173.24 131.44"><defs><style>.cls-1{fill:#997b66;stroke:#997b66;stroke-miterlimit:10;stroke-width:0.58px;}</style></defs><g id="Layer_2" data-name="Layer 2"><g id="Layer_1-2" data-name="Layer 1"><path class="cls-1" d="M172.26,127.31q-10.15.09-20.33.2c-4.57,0-9.14.14-13.71.22-5.43.1-10.86.18-16.29.32a6.63,6.63,0,0,1-3.71-1.11c-.54-.32-.49-.36-.1-.87a12.26,12.26,0,0,0,1.16-1.8,12.6,12.6,0,0,0,1.1-5.77c0-11.2,0-22.41-.15-33.62,0-5.55-.25-11.11-.44-16.67-.1-3-.29-6-.48-9-.12-1.81-.27-3.63-.48-5.43a8.53,8.53,0,0,0-1-3.41A5.56,5.56,0,0,0,115,47.92c-1.31-.5-2.65-.91-4-1.32a16.21,16.21,0,0,1-3.73-1.54.75.75,0,0,1-.43-.87,6.54,6.54,0,0,0,.13-1,117.12,117.12,0,0,0,.12-12.43,68.12,68.12,0,0,0-1.43-12.42,5.27,5.27,0,0,0-.8-1.81,5.83,5.83,0,0,1-1.23-2.18L103.5,14c-.46-.86-1.46-1.19-2-.52a1.44,1.44,0,0,1-1.78.44l-.37,0-3.75-.26c-.63-.05-1.27-.12-1.9-.19s-.61-.27-.39-.71a3.42,3.42,0,0,1,2.28-1.82,10.48,10.48,0,0,1,3.62-.15,16.5,16.5,0,0,0,4.27.17,1.89,1.89,0,0,0,1.66-1.47,1.89,1.89,0,0,0-.67-2.26l0-.18c1.18-.38,1.65-.74,1.85-1.54a1,1,0,0,1,.59-.74,1.37,1.37,0,0,0,.78-1.57,3,3,0,0,0-1.88-1.95,15,15,0,0,0-5.22-.93,28.87,28.87,0,0,0-7.31.47,11.68,11.68,0,0,0-2.64,1,1.56,1.56,0,0,0-.35,2.49,8,8,0,0,0,1.25.93,4.48,4.48,0,0,0-.71.89A1.77,1.77,0,0,0,91.13,8c.25.33.26.53-.09.82a2.64,2.64,0,0,0-1,2.33,3.23,3.23,0,0,0,1.3,2.43l.36.56c0,1.15-.18,2.3-.1,3.43.18,2.34.57,4.65.71,7,.19,3,.26,6,.3,9A8.21,8.21,0,0,1,91.68,38c-.89,1.53-1.82,3-2.75,4.54l-.48.2c-.91-.1-1.82-.26-2.73-.35-2.88-.28-5.75-.65-8.63-.79-4.71-.22-9.42-.35-14.13-.12a83.57,83.57,0,0,0-12.82,1.34,18.12,18.12,0,0,0-4.34,1.37A2.86,2.86,0,0,0,44,46.71a48.83,48.83,0,0,0,.69,13.16,36,36,0,0,0,1.91,6.19,28.14,28.14,0,0,0,3.55,6.18,32.26,32.26,0,0,0,9.37,8.35c2.46,1.46,5,2.71,7.57,4.07a6,6,0,0,1,2.33,1.83A10,10,0,0,1,71,91.67c.14,2.57.06,5.15,0,7.72s-.4,5-.52,7.5a109.91,109.91,0,0,0,.4,15c.06.68.06.67-.6.69-2.55.08-5.11.13-7.66.27-1.94.1-3.87.29-5.8.51-1.71.19-3.42.43-5.12.74a31.54,31.54,0,0,0-3.83,1,1.67,1.67,0,0,0-1.36,1.62l-.34.28c-.61.11-1.22.18-1.83.27a56.65,56.65,0,0,1-8.23.59c-3.11,0-6.22,0-9.34,0-.47,0-.95.12-1.42.11-1.06,0-2.12-.11-3.19-.11l-21.18,0c-.28,0-.61-.09-.63.4s.1.65.61.65q10.67-.07,21.33-.1c1.6,0,3.2.06,4.8.08,2.84,0,5.68.15,8.52.08,2.68-.07,5.35-.3,8-.5,1-.07,2-.26,3-.38l.52.15a7.69,7.69,0,0,0,3.19,1.53,45.08,45.08,0,0,0,9.09,1.3,109.22,109.22,0,0,0,14.13,0c2.21-.14,4.43-.36,6.63-.61,1.59-.18,3.18-.45,4.76-.68l2.55-.41c1-.15,2-.24,2.91-.48a13.62,13.62,0,0,1,3.73-.83c.69,0,1.38,0,2.06,0a72.05,72.05,0,0,1,10.28.66,41.15,41.15,0,0,0,4.69.37,10.09,10.09,0,0,0,5.58-1.51l.44,0a7.35,7.35,0,0,0,3.74,1.52,10.72,10.72,0,0,0,2.83,0c1.2-.12,2.42,0,3.64,0,6.56-.13,13.13-.3,19.69-.4,6.83-.1,13.66-.15,20.49-.21l5.45-.05v-1C172.72,127.32,172.49,127.3,172.26,127.31Zm-68.8-93.18c.2-2.14.32-4.28.52-6.42a76.32,76.32,0,0,0,.35-9.56l0-.18.12,0c.12.48.28,1,.35,1.44.29,1.93.59,3.86.83,5.8a118,118,0,0,1,.41,16c0,.85-.13,1.71-.21,2.66a5,5,0,0,1-1.44-2.1A16,16,0,0,1,103.46,34.13Zm-2.11-17.37.08-.46c.16-.24-.06-.72.41-.75a1.66,1.66,0,0,1,1.25.84,3.36,3.36,0,0,1,.13.89c0,2.8,0,5.61-.15,8.41-.1,2.32-.33,4.64-.48,7a44.75,44.75,0,0,0-.19,4.48,12.34,12.34,0,0,0,1.52,5.81,7.48,7.48,0,0,0,1.25,1.69,1.47,1.47,0,0,1,.47,1.5c-.25,1.06-.55,2.11-.84,3.16l-.25.46c-.24.3-.54.29-.7-.07a5.63,5.63,0,0,1-.37-1.14c-.36-2-.79-4.08-1-6.14-.41-3.34-.77-6.68-1-10-.22-2.93-.26-5.88-.4-9.29C101.1,21.27,101.22,19,101.35,16.76ZM104.24,6c-1.5.25-3,.44-4.53.66l-5.94.87c-.27,0-.54.17-.81.24A1,1,0,0,1,91.7,7a.69.69,0,0,1,.53-.93,9.56,9.56,0,0,1,2.1-.43c2.85-.11,5.71-.14,8.56-.22.76,0,1.53-.09,2.37-.14A1.26,1.26,0,0,1,104.24,6ZM98.53,4.33c1.68-.76,5.33-.88,6.08,0ZM91,3.51c-.23-.31-.2-.58.09-.77a4.73,4.73,0,0,1,1.11-.59A25.51,25.51,0,0,1,99,1.21a20.5,20.5,0,0,1,6.25.93,3.59,3.59,0,0,1,1.24.92l-.08.77c-.22.26-.51.22-.78-.12a2.85,2.85,0,0,0-2.19-1,17.33,17.33,0,0,0-5.11.61c-1.23.28-2.48.49-3.72.7a9.58,9.58,0,0,1-2,.19A2,2,0,0,1,91,3.51Zm1.39,8.87c-.25.45-.42.47-.72.07a2,2,0,0,1,.61-3.22,1.18,1.18,0,0,1,.81,0,6.93,6.93,0,0,0,3,0l2.79-.51c.94-.18,1.87-.37,2.8-.53A12,12,0,0,1,103.24,8c.32,0,.7-.06.86.35a1.37,1.37,0,0,1-.3,1.37,1.4,1.4,0,0,1-.62.22c-.41,0-.81,0-1.22,0v0c-1.16-.11-2.31-.24-3.47-.32a7.48,7.48,0,0,0-4.26.69A4.6,4.6,0,0,0,92.34,12.38ZM89.52,44c.76.17,1.53.32,2.29.51a11.74,11.74,0,0,1,3.9,1.5c.78.54.8,1.15,0,1.71l-.29.22c-.77.56-1,.56-1.43-.22a2.9,2.9,0,0,0-1.44-1.14,2.28,2.28,0,0,1-.85-.73,6,6,0,0,0-2.24-1.7ZM111.6,95.25l-.15,0,0,.24.13.47c0,.36-.05.73-.09,1.1l0,.17a3.21,3.21,0,0,0,0,.82c.1.89.08,1.8.1,2.69s0,1.81.06,2.7.12,1.8.16,2.7c.09,1.58.12,3.17.26,4.75.15,1.76.41,3.5.61,5.25.07.57.12,1.14.18,1.79-.63-.11-1.23-.25-1.83-.3-1.84-.17-3.69-.26-5.53-.44s-3.57-.41-5.35-.66a4.67,4.67,0,0,1-1.29-.43l-.25-.49a58.41,58.41,0,0,0-.25-9.35c-.26-3.09-.47-6.19-.72-9.28-.19-2.25-.43-4.5-.62-6.75-.18-2.1-.32-4.21-.49-6.32s-.37-4.18-.55-6.27l-.51-6c-.08-1-.15-2-.25-3.06-.05-.46.07-.66.56-.8a16.38,16.38,0,0,1,5.46-.79,11.66,11.66,0,0,1,6.67,2.16,8.14,8.14,0,0,1,2.82,4,16.77,16.77,0,0,1,.57,5.08c.06,5,.08,10,.13,15a4.23,4.23,0,0,0,.18,1.33l.06.09Zm2.94,28.58c.17.51-.22.56-.48.63a27,27,0,0,1-2.93.67,58.67,58.67,0,0,1-11.4.23c-1.15,0-2.3-.27-3.56-.42a20.31,20.31,0,0,0,2.29-7.8,40.17,40.17,0,0,0,10,1.32,36.38,36.38,0,0,1,4.27.65l.46.47C113.64,121,114.06,122.42,114.54,123.83Zm-.25-3.84c1.1.59,1.84,2.91,1.1,3.38C115,122.25,114.68,121.18,114.29,120ZM95.49,84.33c.19,2.24.35,4.47.54,6.7.11,1.23.26,2.45.37,3.68.09,1.07.16,2.15.25,3.22.14,1.79.31,3.58.42,5.37.19,3,.35,6,.5,9,0,.9,0,1.8,0,2.7a5.28,5.28,0,0,1-.06.55,8.72,8.72,0,0,1-3.14-2.44,12.5,12.5,0,0,1-2.43-5.81,48.5,48.5,0,0,1-.38-8.08c-.06-7.32-.09-14.64-.16-22a3.19,3.19,0,0,1,.56-1.7c.79-1.38,1.47-2.82,2.19-4.23l.12-.22a4.71,4.71,0,0,1,.13.5c.1,1,.22,2.1.31,3.16Zm-4.19-12a3.22,3.22,0,0,1,.38-1.92,4.91,4.91,0,0,1,2.18-1.67,19.47,19.47,0,0,1-2.36,5.64l-.2,0C91.3,73.68,91.31,73,91.3,72.33Zm-1,2.94a1.63,1.63,0,0,1-.6,1.38c-.17.17-.35.32-.64.58,0-1.76,0-3.36,0-5a3,3,0,0,1,.53-1.13,16.63,16.63,0,0,0,2.27-9.24,4.61,4.61,0,0,0-.45-1.62,1.21,1.21,0,0,0-1.94-.46c-.39.27-.75.58-1.12.87L88,61c-.14-1.17-.32-2.25-.39-3.33-.13-2-.18-4-.29-6,0-.55.23-.74.73-.82,1.35-.2,2.71-.42,4.06-.65.28,0,.44,0,.46.33.13,1.49.27,3,.41,4.47.12,1.3.26,2.6.37,3.9.1,1.11.17,2.21.26,3.32.12,1.55.24,3.09.4,4.63a.64.64,0,0,1-.39.75,7,7,0,0,0-2.64,2,2.93,2.93,0,0,0-.66,1.85C90.34,72.77,90.27,74,90.32,75.27ZM89,69.78c-.06-.54-.11-1.07-.17-1.61-.21-1.71-.4-3.43-.64-5.13a1.16,1.16,0,0,1,.49-1.27c.54-.4,1-.84,1.59-1.28a2.61,2.61,0,0,1,.6,2,21.59,21.59,0,0,1-.46,3.75,24.85,24.85,0,0,1-1,3.08l-.25.45ZM75.88,119.49c0-1.81-.19-3.63-.34-5.44-.27-3.31-.91-6.58-.69-10,.31-4.89.67-9.79.64-14.7a4.65,4.65,0,0,1,1-2.35,13.37,13.37,0,0,1,1.81-1.88l.37-.17c.1,1.12.21,2.21.28,3.29.14,2,.27,4.08.37,6.13s.22,4.19.27,6.29c.12,5.52.18,11.05.32,16.57,0,1.76.24,3.51.42,5.27a10.43,10.43,0,0,0,.49,1.7c-1.16,0-2.24,0-3.3,0-.24,0-.5-.44-.65-.73A8.29,8.29,0,0,1,75.88,119.49Zm.1,4.65c-.56.21-.61.18-1.07-.61l.51-.54c.13.24.23.41.31.58Zm2.06-67a34.19,34.19,0,0,0-.44,3.61c-.12,2.13-.16,4.27-.22,6.4,0,.47-.11.65-.63.8a15.15,15.15,0,0,1-5.72.33,17.4,17.4,0,0,1-9-4.29,27.27,27.27,0,0,1-4.6-5.51,18,18,0,0,1-2.05-4.38A14.83,14.83,0,0,1,55,51.88c-.05-.3.13-.4.42-.39l1.21,0c1.82.05,3.63.14,5.44.16q6.09,0,12.17,0c1.52,0,3-.05,4.55-.08h.55c-.2.69-.4,1.3-.55,1.93C78.54,54.75,78.25,56,78,57.15Zm.07,21.55-.3.38c-1.08.25-2.16.52-3.25.66a28.7,28.7,0,0,1-3.59.2,14,14,0,0,1-6.34-1.59,16,16,0,0,1-5.37-4.74,26.11,26.11,0,0,1-3.47-6.4c-.85-2.24-1.55-4.55-2.21-6.86-.47-1.66-.77-3.36-1.14-5-.27-1.22-.53-2.44-.8-3.65-.12-.52,0-.63.47-.56s1.15.16,1.66.24c.26,1.2.44,2.38.79,3.49a19.23,19.23,0,0,0,3.68,6.52A44.65,44.65,0,0,0,61.7,65a16.62,16.62,0,0,0,5.71,3.39,16.91,16.91,0,0,0,5,1,14.2,14.2,0,0,0,4.49-.51,3.88,3.88,0,0,1,.48-.06c.07.93.14,1.83.21,2.72.13,1.58.27,3.16.39,4.74C78.05,77.11,78.09,77.91,78.11,78.7Zm2.44-29.83A10,10,0,0,0,80,50.12a.62.62,0,0,1-.64.44c-6.4,0-12.8.13-19.2.15-1.49,0-3-.19-4.48-.29-.16,0-.31-.05-.53-.08a4,4,0,0,1,2.38-3,9.54,9.54,0,0,1,4.15-.89c4.69,0,9.38,0,14.07,0,1.94,0,3.88.13,5.82.21l.35,0C81.44,47.46,81,48.15,80.55,48.87Zm2.76-2,.38-.14c1.07,0,2.13.1,3.27.16-.18,1-.36,2-.56,3l-.31.21L81,50.5A8.17,8.17,0,0,1,83.31,46.91Zm-4.4,11.16a41.44,41.44,0,0,1,1.43-6,.82.82,0,0,1,.57-.49c1.76-.16,3.51-.28,5.27-.41l.13,0,0,.34c.08,2.27.14,4.55.25,6.82a12.91,12.91,0,0,0,.3,2.4,1.53,1.53,0,0,1-.62,1.81,33.19,33.19,0,0,1-6.62,4.38c-.36.16-.75.28-1.2.46,0-.24-.07-.42-.07-.6A57.62,57.62,0,0,1,78.91,58.07Zm-.12,10.3a26.56,26.56,0,0,0,7.68-4.72c.21-.18.45-.31.73-.51.16,1,.36,1.9.45,2.83.17,1.76.28,3.52.39,5.28a1.12,1.12,0,0,1-.13.6,11.7,11.7,0,0,1-1.68,2.38,18.89,18.89,0,0,1-6.8,4.34h-.24c-.07-.66-.14-1.32-.2-2-.12-1.46-.25-2.92-.35-4.38-.07-1.14-.11-2.29-.13-3.43Zm.67,14c-.06-.76-.07-1.52-.14-2.27s.46-.6.76-.72a18.28,18.28,0,0,0,7.45-5.17l.18-.18.12,0a16.29,16.29,0,0,1,.28,1.89A11.46,11.46,0,0,1,88,78l-.42.51c-1.48.86-3,1.72-4.47,2.56-1,.57-2,1.11-3,1.67C79.62,82.92,79.49,82.87,79.46,82.42ZM94.77,62.88c-.48-4.31-.87-8.64-1.07-13A34.27,34.27,0,0,1,94.77,62.88Zm-5.16-17.5c.31.2.6.43.9.64l-.07.19-2-.23C88.67,45,88.85,44.92,89.61,45.38Zm-1.16,1.69c1,.07,1.92.17,2.89.29l.36.25c.26.43.48.89.78,1.44a34.84,34.84,0,0,1-5,.93c.21-1,.36-1.84.56-2.67Zm-.81-2c-.44.88-.44.88-1.45.77l-1.14-.14a3.82,3.82,0,0,1,2.59-.82ZM70.47,86.31a6.5,6.5,0,0,0-3-2.58A72.3,72.3,0,0,1,58,78.43a32.35,32.35,0,0,1-6.26-5.77A28.87,28.87,0,0,1,47,64.4a31.57,31.57,0,0,1-1.61-6.05,43.61,43.61,0,0,1-.6-8.69c0-1,.13-2.08.21-3.11.06-.77.66-1.1,1.23-1.39a18.88,18.88,0,0,1,5.3-1.55,55.46,55.46,0,0,1,8.71-.91c5.12-.1,10.23-.16,15.35-.14,2.11,0,4.22.21,6.33.41,1.89.17,3.77.45,5.59.68-.9.31-1.87.62-2.81,1a3.59,3.59,0,0,0-1,.6,2,2,0,0,1-1.51.45q-6.27-.15-12.54-.25c-2.72,0-5.43,0-8.15,0a10.23,10.23,0,0,0-4.3.91,5.28,5.28,0,0,0-3.07,3.51c-.11.42-.3.49-.67.41-.62-.12-1.25-.23-1.88-.31-.29,0-.39-.17-.48-.45a23.36,23.36,0,0,0-1.08-3c-.71-1.48-1.75-1.67-3-.57A2.47,2.47,0,0,0,46,48.29a2.27,2.27,0,0,0,1.58,1.63,19,19,0,0,0,2.24.75c.35.11.61.22.69.65q.6,2.93,1.26,5.83c.24,1.08.53,2.15.82,3.22.35,1.34.69,2.68,1.11,4a34.76,34.76,0,0,0,3.8,8.46,17.58,17.58,0,0,0,6.64,6.37,15.07,15.07,0,0,0,8,1.75c2-.11,4-.44,6.11-.68.07.56.1,1.28.24,2a2.19,2.19,0,0,1-1.11,2.35,21.42,21.42,0,0,0-2.17,2.19c0-.19-.12-.41-.18-.62A2.78,2.78,0,0,0,73.39,84a1.45,1.45,0,0,0-1.94,1.07c0,.41-.18.82-.22,1.24a7.46,7.46,0,0,1-.1,1.23C70.91,87.13,70.7,86.72,70.47,86.31ZM50,49.55l-.12.16a15.15,15.15,0,0,1-2.16-.85c-1-.57-1-1-.25-1.89l.42-.39a.65.65,0,0,1,1.08.14A8.17,8.17,0,0,1,50,49.55ZM74,90.92a38.35,38.35,0,0,0-.74,4l0,.5h-.09a3,3,0,0,1-.19-.63c-.21-2.23-.45-4.45-.61-6.68a16,16,0,0,1,.12-2.58l.3-.52a1,1,0,0,1,.79.22,3,3,0,0,1,.59,1.16A9,9,0,0,1,74,90.92Zm.34,4.41q-.14,2.92-.28,5.85l-.24,0c-.28-2,.41-3.88.39-5.83Zm-1.78,6.6a99.28,99.28,0,0,0-.22,14.43c.09,1.18.13,2.36.25,3.53.08.73.26,1.45.39,2.18l.06.55c-.9.06-1,0-1.07-.65a87.4,87.4,0,0,1-.45-14.1c.14-3.21.36-6.41.55-9.61a1.59,1.59,0,0,1,.19-.62A18.17,18.17,0,0,1,72.51,101.93ZM74,124c-1,.48-1.67.32-1.79-.5Zm.46,1.29.12.25a2.62,2.62,0,0,1-.82.49c-.39.07-.67-.2-.87-.66Zm.1-3.08-.27.27-.21-.26a25.37,25.37,0,0,1-.56-2.67,107.5,107.5,0,0,1-.23-13.9l0-.2a16.94,16.94,0,0,1,.34,5.1,55.89,55.89,0,0,0,.66,8.27,16.39,16.39,0,0,0,.36,1.69A2.48,2.48,0,0,1,74.57,122.25Zm-27,4.44-.09-.2a3.72,3.72,0,0,1,.88-.58,21.22,21.22,0,0,1,2.49-.66A82.89,82.89,0,0,1,63,123.87c2.5-.14,5-.18,7.51-.26l.31,0,.37.48-.37.3c-.77.06-1.55,0-2.32.1-3.28.22-6.55.41-9.82.7-2.31.21-4.62.55-6.92.86-1.17.16-2.32.39-3.49.58A5.69,5.69,0,0,1,47.54,126.69Zm32.95,2.62c-1,.11-2,.16-2.95.26a122.66,122.66,0,0,1-16.71.37c-2.09-.08-4.19-.3-6.26-.58-1.58-.2-3.14-.57-4.7-.92a9.9,9.9,0,0,1-1.51-.64l0-.15c1.42-.22,2.85-.45,4.27-.65s3-.44,4.5-.6c2-.21,3.9-.37,5.85-.52,1.56-.12,3.13-.2,4.7-.29l3.54-.16a.68.68,0,0,1,.67.4,4,4,0,0,0,.94,1,1.69,1.69,0,0,0,2.58-1,.88.88,0,0,1,1.52-.35,20.59,20.59,0,0,0,2,1.68,10.59,10.59,0,0,0,3.49,1.53l.25.18C81.93,129.06,81.21,129.22,80.49,129.31Zm-2.31-4c1.06,0,2.09,0,3.12,0l.4.3A6.6,6.6,0,0,0,85.37,128c.34.07.69.09,1,.14C84.62,128.51,80.09,127.45,78.18,125.34Zm10.66,1.77a10.08,10.08,0,0,1-4.12-.41A4.61,4.61,0,0,1,83,125.45c.52,0,.92,0,1.31,0a18.13,18.13,0,0,1,4.69.85c.2.08.34.3.5.46C89.25,126.88,89.05,127.11,88.84,127.11Zm1.8-.06c0-1.55-1.29-1.84-2.4-2-1.82-.34-3.67-.48-5.5-.68-.75-.08-.9-.19-1.15-.91A14.15,14.15,0,0,1,81,119c-.12-5.22-.14-10.45-.29-15.67-.11-3.89-.36-7.78-.57-11.67-.13-2.28-.29-4.55-.46-6.81a1.07,1.07,0,0,1,.65-1.18c1.92-1,3.83-2.07,5.74-3.11.59-.33,1.17-.69,1.87-1.1,0,.32.07.53.08.73,0,2.72,0,5.43,0,8.15.06,5.28.08,10.55.22,15.83.1,4.21.3,8.43.55,12.63.12,2,.42,4,.69,6a2.43,2.43,0,0,0,2,2.2c.81.18,1.6.45,2.49.71A4,4,0,0,1,90.64,127.05ZM94,124.6c-.69-.16-1.37-.31-2.05-.5a1.86,1.86,0,0,1-1.59-1.93c-.28-3.07-.61-6.14-.81-9.21-.17-2.54-.22-5.08-.25-7.62-.11-8.56-.16-17.11-.3-25.67,0-1,.54-1.48,1.34-2.07,0,1.56,0,3,0,4.37q.08,10.69.18,21.38a20.32,20.32,0,0,0,1.26,7.4,10.43,10.43,0,0,0,3.73,4.86c.48.33,1,.62,1.48.9a.55.55,0,0,1,.37.65c-.13.73-.17,1.47-.31,2.2a14.09,14.09,0,0,1-1.48,4.47C95,124.78,95.2,124.88,94,124.6Zm20.89,2.54a13.64,13.64,0,0,1-7,.57,73.3,73.3,0,0,0-13.07-.84h-.32A1.39,1.39,0,0,1,96.2,126a19.43,19.43,0,0,0,2.15.27,70.36,70.36,0,0,0,9.52.23,27,27,0,0,0,5.79-.83,11.86,11.86,0,0,0,1.14-.4.44.44,0,0,1,.62.2c.2.32.44.63.73,1C115.71,126.75,115.32,127,114.9,127.14Zm2-1.3c-.26-.39-.53-.75-.76-1.13l0-.38a2.82,2.82,0,0,0,.35-2.67,4.06,4.06,0,0,0-2.12-2.92,1,1,0,0,1-.57-.83c-.24-1.76-.54-3.52-.7-5.29-.47-5.24-.61-10.5-.7-15.76l-.08-.52c.1-1.14.17-2.29.18-3.44l-.17-.35c0-4.88-.11-9.75-.13-14.63a15.86,15.86,0,0,0-.63-4.9,9.3,9.3,0,0,0-5.81-6,15.61,15.61,0,0,0-8.95-.47l-1.44.31c0-.27,0-.49,0-.7.19-2.16.49-4.32.54-6.48a38,38,0,0,0-.36-5.42c-.17-1.5-.55-3-.8-4.46l.22-.43a14.78,14.78,0,0,0,1.52-1,1.82,1.82,0,0,0-.21-3.13,10.45,10.45,0,0,0-3.48-1.45c-1-.24-2-.5-3-.77.37-.57.71-1.11,1.07-1.64a16.78,16.78,0,0,0,2.37-4.68,8.13,8.13,0,0,0,.31-2.3c0-2.7-.1-5.39-.19-8.09,0-1.13-.11-2.25-.22-3.37-.16-1.42-.45-2.83-.54-4.25s0-2.66,0-4l.11-.27,4.13.4,3.2.3c.28,0,.4.11.37.43-.19,2-.51,4-.51,6.05,0,3.15.19,6.31.32,9.46.06,1.34.12,2.68.24,4,.18,1.94.38,3.89.61,5.83.22,1.79.41,3.58.74,5.34a26.09,26.09,0,0,0,1.1,4.05,1.24,1.24,0,0,0,2.19.25,7,7,0,0,0,1.13-2.91,11.76,11.76,0,0,0,.22-1.3c0-.35.19-.36.46-.2a18.67,18.67,0,0,0,4.41,1.68,13.14,13.14,0,0,1,4.22,1.7,4.51,4.51,0,0,1,1.83,2.86,71.26,71.26,0,0,1,1.07,11.2c.26,6.1.49,12.2.64,18.3.13,5.12.13,10.24.16,15.35,0,4.91.05,9.81,0,14.72,0,2.89,0,5.8-.2,8.68A7.72,7.72,0,0,1,116.94,125.84Z"/></g></g></svg>