<svg width="692" height="599" viewBox="0 0 692 599" fill="none" xmlns="http://www.w3.org/2000/svg">
<path fill-rule="evenodd" clip-rule="evenodd" d="M450.281 42.2012C504.49 49.2234 544.153 95.1621 578.819 137.418C610.818 176.422 631.155 222.404 638.997 272.236C646.877 322.308 655.129 380.328 623.248 419.736C592.01 458.352 528.912 440.91 484.518 463.195C440.064 485.511 415.857 541.527 366.614 548.565C310.959 556.52 248.33 542.422 208.619 502.629C168.85 462.777 169.25 400.293 162.836 344.366C156.669 290.583 145.209 233.07 172.335 186.22C199.019 140.132 256.03 126.233 303.32 101.73C351.424 76.8044 396.548 35.2405 450.281 42.2012Z" fill="#F0CBC1" fill-opacity="0.5"/>
<rect x="3.5" y="78.5" width="584" height="415" rx="8.5" fill="#FEFBF5" stroke="#624F41" stroke-width="3"/>
<path d="M429.916 479.1H426.816V486H427.556V483.55H429.916C431.206 483.55 432.176 482.59 432.176 481.32C432.176 480.06 431.206 479.1 429.916 479.1ZM429.896 482.55H427.556V480.1H429.896C430.786 480.1 431.416 480.6 431.416 481.32C431.416 482.04 430.786 482.55 429.896 482.55ZM433.648 479.89C434.008 479.89 434.278 479.65 434.278 479.35C434.278 479.04 434.008 478.8 433.648 478.8C433.288 478.8 433.018 479.04 433.018 479.35C433.018 479.65 433.288 479.89 433.648 479.89ZM433.308 486H433.988V480.9H433.308V486ZM437.837 486.12C439.137 486.12 440.167 485.3 440.447 484.13H439.697C439.407 484.74 438.697 485.15 437.837 485.15C436.687 485.15 435.837 484.42 435.837 483.45C435.837 482.48 436.687 481.75 437.837 481.75C438.697 481.75 439.407 482.16 439.697 482.77H440.447C440.167 481.6 439.137 480.78 437.837 480.78C436.287 480.78 435.117 481.93 435.117 483.45C435.117 484.97 436.287 486.12 437.837 486.12ZM445.3 486H446.19L443.71 483.31L446.13 480.9H444.88L442.45 483.2H442.23V478.8H441.55V486H442.23V484.47L443.15 483.78L445.3 486ZM453.241 480.9V483.85C453.241 484.63 452.581 485.15 451.601 485.15C450.651 485.15 450.031 484.64 450.031 483.87V480.9H449.341V484.11C449.341 485.32 450.141 486.12 451.331 486.12C452.221 486.12 452.891 485.67 453.241 484.88V486H453.931V480.9H453.241ZM458.228 480.78C457.238 480.78 456.448 481.35 456.068 482.21V480.9H455.388V487.9H456.068V484.69C456.448 485.55 457.238 486.12 458.228 486.12C459.688 486.12 460.788 484.97 460.788 483.45C460.788 481.93 459.688 480.78 458.228 480.78ZM458.068 485.15C456.928 485.15 456.068 484.42 456.068 483.45C456.068 482.48 456.928 481.75 458.068 481.75C459.218 481.75 460.068 482.48 460.068 483.45C460.068 484.42 459.218 485.15 458.068 485.15ZM466.192 486H467.152L468.852 480.83H469.192L470.892 486H471.852L474.132 479.1H473.292L471.442 484.46H471.192L469.372 479.1H468.632L466.822 484.46H466.562L464.712 479.1H463.922L466.192 486ZM475.543 479.89C475.903 479.89 476.173 479.65 476.173 479.35C476.173 479.04 475.903 478.8 475.543 478.8C475.183 478.8 474.913 479.04 474.913 479.35C474.913 479.65 475.183 479.89 475.543 479.89ZM475.203 486H475.883V480.9H475.203V486ZM480.041 480.78C479.101 480.78 478.381 481.25 478.021 482.07V480.9H477.341V486H478.021V483.14C478.021 482.3 478.721 481.75 479.761 481.75C480.771 481.75 481.431 482.29 481.431 483.12V486H482.111V482.85C482.111 481.6 481.281 480.78 480.041 480.78ZM488.603 483.47C488.603 481.92 487.433 480.78 485.893 480.78C484.343 480.78 483.173 481.93 483.173 483.45C483.173 484.97 484.343 486.12 485.903 486.12C487.093 486.12 488.073 485.49 488.493 484.53H487.663C487.313 484.9 486.653 485.14 485.913 485.14C484.873 485.14 484.093 484.59 483.903 483.81H488.583C488.593 483.7 488.603 483.58 488.603 483.47ZM485.893 481.76C486.893 481.76 487.703 482.3 487.883 483.08H483.903C484.093 482.3 484.883 481.76 485.893 481.76Z" fill="#624F41"/>
<path d="M429.916 479.1H426.816V486H427.556V483.55H429.916C431.206 483.55 432.176 482.59 432.176 481.32C432.176 480.06 431.206 479.1 429.916 479.1ZM429.896 482.55H427.556V480.1H429.896C430.786 480.1 431.416 480.6 431.416 481.32C431.416 482.04 430.786 482.55 429.896 482.55ZM433.648 479.89C434.008 479.89 434.278 479.65 434.278 479.35C434.278 479.04 434.008 478.8 433.648 478.8C433.288 478.8 433.018 479.04 433.018 479.35C433.018 479.65 433.288 479.89 433.648 479.89ZM433.308 486H433.988V480.9H433.308V486ZM437.837 486.12C439.137 486.12 440.167 485.3 440.447 484.13H439.697C439.407 484.74 438.697 485.15 437.837 485.15C436.687 485.15 435.837 484.42 435.837 483.45C435.837 482.48 436.687 481.75 437.837 481.75C438.697 481.75 439.407 482.16 439.697 482.77H440.447C440.167 481.6 439.137 480.78 437.837 480.78C436.287 480.78 435.117 481.93 435.117 483.45C435.117 484.97 436.287 486.12 437.837 486.12ZM445.3 486H446.19L443.71 483.31L446.13 480.9H444.88L442.45 483.2H442.23V478.8H441.55V486H442.23V484.47L443.15 483.78L445.3 486ZM453.241 480.9V483.85C453.241 484.63 452.581 485.15 451.601 485.15C450.651 485.15 450.031 484.64 450.031 483.87V480.9H449.341V484.11C449.341 485.32 450.141 486.12 451.331 486.12C452.221 486.12 452.891 485.67 453.241 484.88V486H453.931V480.9H453.241ZM458.228 480.78C457.238 480.78 456.448 481.35 456.068 482.21V480.9H455.388V487.9H456.068V484.69C456.448 485.55 457.238 486.12 458.228 486.12C459.688 486.12 460.788 484.97 460.788 483.45C460.788 481.93 459.688 480.78 458.228 480.78ZM458.068 485.15C456.928 485.15 456.068 484.42 456.068 483.45C456.068 482.48 456.928 481.75 458.068 481.75C459.218 481.75 460.068 482.48 460.068 483.45C460.068 484.42 459.218 485.15 458.068 485.15ZM466.192 486H467.152L468.852 480.83H469.192L470.892 486H471.852L474.132 479.1H473.292L471.442 484.46H471.192L469.372 479.1H468.632L466.822 484.46H466.562L464.712 479.1H463.922L466.192 486ZM475.543 479.89C475.903 479.89 476.173 479.65 476.173 479.35C476.173 479.04 475.903 478.8 475.543 478.8C475.183 478.8 474.913 479.04 474.913 479.35C474.913 479.65 475.183 479.89 475.543 479.89ZM475.203 486H475.883V480.9H475.203V486ZM480.041 480.78C479.101 480.78 478.381 481.25 478.021 482.07V480.9H477.341V486H478.021V483.14C478.021 482.3 478.721 481.75 479.761 481.75C480.771 481.75 481.431 482.29 481.431 483.12V486H482.111V482.85C482.111 481.6 481.281 480.78 480.041 480.78ZM488.603 483.47C488.603 481.92 487.433 480.78 485.893 480.78C484.343 480.78 483.173 481.93 483.173 483.45C483.173 484.97 484.343 486.12 485.903 486.12C487.093 486.12 488.073 485.49 488.493 484.53H487.663C487.313 484.9 486.653 485.14 485.913 485.14C484.873 485.14 484.093 484.59 483.903 483.81H488.583C488.593 483.7 488.603 483.58 488.603 483.47ZM485.893 481.76C486.893 481.76 487.703 482.3 487.883 483.08H483.903C484.093 482.3 484.883 481.76 485.893 481.76Z" fill="#624F41"/>
<path d="M25.1327 304.12C26.5827 304.12 27.7727 303.31 27.7727 302.06C27.7727 300.93 26.8027 300.3 25.3127 300.03C24.7327 299.93 23.3427 299.66 23.3427 298.9C23.3427 298.32 24.1027 297.94 25.0527 297.94C26.1027 297.94 26.8627 298.39 26.8627 298.98H27.6327C27.6327 297.85 26.5527 296.98 25.0827 296.98C23.6827 296.98 22.5827 297.76 22.5827 298.95C22.5827 300.03 23.4927 300.69 24.8927 300.96C25.7027 301.1 27.0127 301.36 27.0127 302.14C27.0127 302.76 26.1827 303.16 25.1727 303.16C24.0427 303.16 23.2027 302.67 23.2027 302.03H22.4327C22.4327 303.22 23.5927 304.12 25.1327 304.12ZM29.236 297.89C29.596 297.89 29.866 297.65 29.866 297.35C29.866 297.04 29.596 296.8 29.236 296.8C28.876 296.8 28.606 297.04 28.606 297.35C28.606 297.65 28.876 297.89 29.236 297.89ZM28.896 304H29.576V298.9H28.896V304ZM35.4447 298.9V300.19C35.0647 299.34 34.2647 298.78 33.2747 298.78C31.8147 298.78 30.7247 299.91 30.7247 301.4C30.7247 302.9 31.8147 304.02 33.2747 304.02C34.2647 304.02 35.0647 303.47 35.4447 302.61V303.44C35.4447 304.44 34.6747 305.09 33.5247 305.09C32.6747 305.09 32.0147 304.75 31.7347 304.21H31.0147C31.3247 305.33 32.2547 306.02 33.5247 306.02C35.0847 306.02 36.1247 305 36.1247 303.45V298.9H35.4447ZM33.4447 303.1C32.2947 303.1 31.4447 302.37 31.4447 301.4C31.4447 300.44 32.2947 299.7 33.4447 299.7C34.5847 299.7 35.4447 300.44 35.4447 301.4C35.4447 302.37 34.5847 303.1 33.4447 303.1ZM40.2679 298.78C39.3279 298.78 38.6079 299.25 38.2479 300.07V298.9H37.5679V304H38.2479V301.14C38.2479 300.3 38.9479 299.75 39.9879 299.75C40.9979 299.75 41.6579 300.29 41.6579 301.12V304H42.3379V300.85C42.3379 299.6 41.5079 298.78 40.2679 298.78ZM48.9307 304.12C50.5307 304.12 51.7407 302.93 51.7407 301.36V297.1H51.0007V301.34C51.0007 302.34 50.1207 303.1 48.9307 303.1C47.7507 303.1 46.8707 302.34 46.8707 301.34V297.1H46.1307V301.36C46.1307 302.93 47.3407 304.12 48.9307 304.12ZM55.9743 298.78C54.9843 298.78 54.1943 299.35 53.8143 300.21V298.9H53.1343V305.9H53.8143V302.69C54.1943 303.55 54.9843 304.12 55.9743 304.12C57.4343 304.12 58.5343 302.97 58.5343 301.45C58.5343 299.93 57.4343 298.78 55.9743 298.78ZM55.8143 303.15C54.6743 303.15 53.8143 302.42 53.8143 301.45C53.8143 300.48 54.6743 299.75 55.8143 299.75C56.9643 299.75 57.8143 300.48 57.8143 301.45C57.8143 302.42 56.9643 303.15 55.8143 303.15Z" fill="#624F41"/>
<path d="M441.861 304.12C443.571 304.12 444.941 303.04 445.341 301.51H444.541C444.141 302.45 443.131 303.1 441.861 303.1C440.241 303.1 439.021 302 439.021 300.55C439.021 299.1 440.241 298 441.861 298C443.131 298 444.141 298.65 444.541 299.59H445.341C444.941 298.06 443.571 296.98 441.861 296.98C439.811 296.98 438.251 298.52 438.251 300.55C438.251 302.58 439.811 304.12 441.861 304.12ZM449.16 298.78C448.22 298.78 447.5 299.26 447.14 300.09V296.8H446.46V304H447.14V301.14C447.14 300.3 447.84 299.75 448.88 299.75C449.89 299.75 450.55 300.29 450.55 301.12V304H451.23V300.85C451.23 299.6 450.4 298.78 449.16 298.78ZM457.023 298.9V300.21C456.643 299.35 455.853 298.78 454.863 298.78C453.403 298.78 452.313 299.93 452.313 301.45C452.313 302.97 453.403 304.12 454.863 304.12C455.853 304.12 456.643 303.55 457.023 302.69V304H457.703V298.9H457.023ZM455.023 303.15C453.873 303.15 453.023 302.42 453.023 301.45C453.023 300.48 453.873 299.75 455.023 299.75C456.163 299.75 457.023 300.48 457.023 301.45C457.023 302.42 456.163 303.15 455.023 303.15ZM459.846 300.25V298.9H459.166V304H459.846V301.58C459.846 300.59 460.596 299.99 461.856 299.99V298.82C460.926 298.82 460.206 299.36 459.846 300.25ZM467.042 298.9V300.19C466.662 299.34 465.862 298.78 464.872 298.78C463.412 298.78 462.322 299.91 462.322 301.4C462.322 302.9 463.412 304.02 464.872 304.02C465.862 304.02 466.662 303.47 467.042 302.61V303.44C467.042 304.44 466.272 305.09 465.122 305.09C464.272 305.09 463.612 304.75 463.332 304.21H462.612C462.922 305.33 463.852 306.02 465.122 306.02C466.682 306.02 467.722 305 467.722 303.45V298.9H467.042ZM465.042 303.1C463.892 303.1 463.042 302.37 463.042 301.4C463.042 300.44 463.892 299.7 465.042 299.7C466.182 299.7 467.042 300.44 467.042 301.4C467.042 302.37 466.182 303.1 465.042 303.1ZM474.266 301.47C474.266 299.92 473.096 298.78 471.556 298.78C470.006 298.78 468.836 299.93 468.836 301.45C468.836 302.97 470.006 304.12 471.566 304.12C472.756 304.12 473.736 303.49 474.156 302.53H473.326C472.976 302.9 472.316 303.14 471.576 303.14C470.536 303.14 469.756 302.59 469.566 301.81H474.246C474.256 301.7 474.266 301.58 474.266 301.47ZM471.556 299.76C472.556 299.76 473.366 300.3 473.546 301.08H469.566C469.756 300.3 470.546 299.76 471.556 299.76ZM479.786 296.8V300.21C479.406 299.35 478.616 298.78 477.626 298.78C476.166 298.78 475.076 299.93 475.076 301.45C475.076 302.97 476.166 304.12 477.626 304.12C478.616 304.12 479.406 303.55 479.786 302.69V304H480.466V296.8H479.786ZM477.786 303.15C476.636 303.15 475.786 302.42 475.786 301.45C475.786 300.48 476.636 299.75 477.786 299.75C478.926 299.75 479.786 300.48 479.786 301.45C479.786 302.42 478.926 303.15 477.786 303.15Z" fill="#624F41"/>
<path d="M471.839 417.895C471.99 417.978 472.144 418.055 472.3 418.126C472.246 418.333 472.191 418.541 472.137 418.749L472.137 418.749L472.136 418.754C471.264 422.23 470.215 425.661 468.994 429.031C468.357 430.736 467.633 432.407 466.827 434.038C466.049 435.606 465.151 437.123 464.247 438.632C463.344 440.137 462.431 441.668 461.657 443.279L461.656 443.281C460.884 444.906 460.305 446.618 459.931 448.38L459.931 448.38L459.93 448.385C459.576 450.154 459.314 451.94 459.144 453.734C459.135 453.801 459.124 453.881 459.111 453.971C459.075 454.211 459.031 454.514 459.023 454.788C459.012 455.182 459.064 455.67 459.387 456.069L459.398 456.083L459.411 456.096C459.7 456.404 460.031 456.668 460.396 456.879C460.742 457.115 461.097 457.337 461.454 457.546L461.456 457.547C462.904 458.388 464.454 459.034 466.068 459.471C466.881 459.696 467.708 459.865 468.544 459.977C469.317 460.125 470.106 460.178 470.894 460.135L470.911 460.134L470.928 460.132C471.508 460.06 471.831 459.689 472.017 459.32C472.106 459.143 472.169 458.956 472.22 458.793C472.243 458.72 472.262 458.656 472.279 458.597C472.306 458.508 472.329 458.429 472.357 458.345C472.357 458.345 472.357 458.345 472.357 458.345L471.884 458.185C472.185 457.295 472.473 456.401 472.747 455.503C473.292 453.722 473.786 451.937 474.232 450.148C474.651 448.46 474.985 446.806 474.717 445.072L475.211 444.996C475.211 444.996 475.211 444.996 475.211 444.996C475.09 444.2 474.926 443.415 474.765 442.645L474.743 442.539C474.574 441.731 474.41 440.937 474.296 440.135L474.296 440.135C473.824 436.839 473.767 433.487 474.127 430.162C474.308 428.5 474.591 426.85 474.975 425.222C475.166 424.411 475.411 423.617 475.662 422.808L475.674 422.769C475.919 421.976 476.169 421.168 476.368 420.339L476.368 420.339C476.502 419.779 476.594 419.134 476.564 418.491C476.747 418.387 476.902 418.238 477.015 418.058C477.109 418.829 477.029 419.651 476.836 420.472L476.836 420.472C476.697 421.07 476.51 421.653 476.32 422.244C476.23 422.523 476.14 422.803 476.054 423.088C475.792 423.955 475.564 424.827 475.361 425.706L475.361 425.708C474.966 427.446 474.691 429.208 474.538 430.982C474.222 434.563 474.397 438.164 475.057 441.679L475.057 441.68C475.141 442.125 475.234 442.558 475.326 442.982C475.615 444.325 475.887 445.589 475.808 446.96C475.715 448.569 475.277 450.173 474.833 451.796C474.774 452.01 474.716 452.224 474.658 452.439C474.145 454.341 473.577 456.227 472.956 458.098C472.956 458.098 472.956 458.099 472.956 458.099L473.43 458.256C473.386 458.387 473.344 458.523 473.3 458.661C473.069 459.4 472.817 460.205 472.211 460.682M471.839 417.895L469.917 461.149C470.708 461.195 471.548 461.201 472.211 460.682M471.839 417.895C471.032 420.988 470.184 424.085 469.141 427.122C468.527 428.936 467.822 430.717 467.029 432.459L467.026 432.464L467.026 432.464C466.21 434.199 465.303 435.889 464.309 437.526M472.211 460.682L471.903 460.288C471.903 460.289 471.903 460.289 471.902 460.289C471.902 460.289 471.902 460.289 471.902 460.29L472.211 460.682Z" fill="#CDCEB2" stroke="#CDCEB2"/>
<path d="M466.022 445.319L463.901 450.996L463.551 450.819L466.074 444.068L466.074 444.068L466.816 442.08L467.147 441.223C467.224 441.045 467.285 440.87 467.338 440.713C467.406 440.581 467.457 440.442 467.49 440.299C467.511 440.253 467.521 440.213 467.525 440.191C467.535 440.144 467.536 440.106 467.536 440.082C467.536 440.057 467.534 440.035 467.532 440.019C467.528 439.986 467.521 439.955 467.514 439.928C467.508 439.907 467.493 439.859 467.462 439.805C467.454 439.79 467.44 439.769 467.422 439.745C467.404 439.723 467.374 439.687 467.327 439.652C467.282 439.618 467.201 439.569 467.086 439.555C467.009 439.521 466.929 439.495 466.847 439.477L466.847 439.477L466.845 439.476L466.843 439.476L466.841 439.475L466.839 439.475L466.838 439.474L466.836 439.473L466.834 439.473L466.832 439.472L466.831 439.471L466.829 439.471L466.827 439.47L466.825 439.47L466.823 439.469L466.822 439.468L466.82 439.468L466.818 439.467L466.816 439.467L466.815 439.466L466.813 439.465L466.811 439.465L466.809 439.464L466.807 439.464L466.806 439.463L466.804 439.462L466.802 439.462L466.8 439.461L466.798 439.461L466.797 439.46L466.795 439.459L466.793 439.459L466.791 439.458L466.79 439.458L466.788 439.457L466.786 439.456L466.784 439.456L466.782 439.455L466.781 439.455L466.779 439.454L466.777 439.453L466.775 439.453L466.774 439.452L466.772 439.452L466.77 439.451L466.768 439.45L466.766 439.45L466.765 439.449L466.763 439.449L466.761 439.448L466.759 439.447L466.757 439.447L466.756 439.446L466.754 439.446L466.752 439.445L466.75 439.444L466.749 439.444L466.747 439.443L466.745 439.443L466.743 439.442L466.741 439.441L466.74 439.441L466.738 439.44L466.736 439.44L466.734 439.439L466.733 439.438L466.731 439.438L466.729 439.437L466.727 439.436L466.725 439.436L466.724 439.435L466.722 439.435L466.72 439.434L466.718 439.433L466.716 439.433L466.715 439.432L466.713 439.432L466.711 439.431L466.709 439.43L466.708 439.43L466.706 439.429L466.704 439.429L466.702 439.428L466.7 439.427L466.699 439.427L466.697 439.426L466.695 439.426L466.693 439.425L466.691 439.424L466.69 439.424L466.688 439.423L466.686 439.423L466.684 439.422L466.683 439.421L466.681 439.421L466.679 439.42L466.677 439.42L466.675 439.419L466.674 439.418L466.672 439.418L466.67 439.417L466.668 439.417L466.666 439.416L466.665 439.415L466.663 439.415L466.661 439.414L466.659 439.414L466.658 439.413L466.656 439.412L466.654 439.412L466.652 439.411L466.65 439.411L466.649 439.41L466.647 439.409L466.645 439.409L466.643 439.408L466.641 439.407L466.64 439.407L466.638 439.406L466.636 439.406L466.634 439.405L466.633 439.404L466.631 439.404L466.629 439.403L466.627 439.403L466.625 439.402L466.624 439.401L466.622 439.401L466.62 439.4L466.618 439.4L466.616 439.399L466.615 439.398L466.613 439.398L466.611 439.397L466.609 439.397L466.608 439.396L466.606 439.395L466.604 439.395L466.602 439.394L466.6 439.394L466.599 439.393L466.597 439.392L466.595 439.392L466.593 439.391L466.591 439.391L466.59 439.39L466.588 439.389L466.586 439.389L466.584 439.388L466.583 439.388L466.581 439.387L466.579 439.386L466.577 439.386L466.575 439.385L466.574 439.385L466.572 439.384L466.57 439.383L466.568 439.383L466.566 439.382L466.565 439.381L466.563 439.381L466.561 439.38L466.559 439.38L466.558 439.379L466.556 439.378L466.554 439.378L466.552 439.377L466.55 439.377L466.549 439.376L466.547 439.375L466.545 439.375L466.543 439.374L466.541 439.374L466.54 439.373L466.538 439.372L466.536 439.372L466.534 439.371L466.533 439.371L466.531 439.37L466.529 439.369L466.527 439.369L466.525 439.368L466.524 439.368L466.522 439.367L466.52 439.366L466.518 439.366L466.516 439.365L466.515 439.365L466.513 439.364L466.511 439.363L466.509 439.363L466.507 439.362L466.506 439.362L466.504 439.361L466.502 439.36L466.5 439.36L466.499 439.359L466.497 439.359L466.495 439.358L466.493 439.357L466.491 439.357L466.49 439.356L466.488 439.355L466.486 439.355L466.484 439.354L466.482 439.354L466.481 439.353L466.479 439.352L466.477 439.352L466.475 439.351L466.474 439.351L466.472 439.35L466.47 439.349L466.468 439.349L466.466 439.348L466.465 439.348L466.463 439.347L466.461 439.346L466.459 439.346L466.457 439.345L466.456 439.345L466.454 439.344L466.452 439.343L466.45 439.343L466.448 439.342L466.447 439.342L466.445 439.341L466.443 439.34L466.441 439.34L466.44 439.339L466.438 439.339L466.436 439.338L466.434 439.337L466.432 439.337L466.431 439.336L466.429 439.336L466.427 439.335L466.425 439.334L466.423 439.334L466.422 439.333L466.42 439.332L466.418 439.332L466.416 439.331L466.415 439.331L466.413 439.33L466.411 439.329L466.409 439.329L466.407 439.328L466.406 439.328L466.404 439.327L466.402 439.326L466.4 439.326L466.398 439.325L466.397 439.325L466.395 439.324L466.393 439.323L466.391 439.323L466.39 439.322L466.388 439.322L466.386 439.321L466.384 439.32L466.382 439.32L466.381 439.319L466.379 439.319L466.377 439.318L466.375 439.317L466.373 439.317L466.372 439.316L466.37 439.316L466.368 439.315L466.366 439.314L466.364 439.314L466.363 439.313L466.361 439.313L466.359 439.312L466.357 439.311L466.356 439.311L466.354 439.31L466.352 439.309L466.35 439.309L466.348 439.308L466.347 439.308L466.345 439.307L466.343 439.306L466.341 439.306L466.339 439.305L466.338 439.305L466.336 439.304L466.334 439.303L466.332 439.303L466.331 439.302L466.329 439.302L466.327 439.301L466.325 439.3L466.323 439.3L466.322 439.299L466.32 439.299L466.318 439.298L466.316 439.297L466.314 439.297L466.313 439.296L466.311 439.296L466.309 439.295L466.307 439.294L466.306 439.294L466.304 439.293L466.302 439.293L466.3 439.292L466.298 439.291L466.297 439.291L466.295 439.29L466.293 439.29L466.291 439.289L466.289 439.288L466.288 439.288L466.286 439.287L466.284 439.286L466.282 439.286L466.28 439.285L466.279 439.285L466.277 439.284L466.275 439.283L466.273 439.283L466.272 439.282L466.27 439.282L466.268 439.281L466.266 439.28L466.264 439.28L466.263 439.279L466.261 439.279L466.259 439.278L466.257 439.277L466.255 439.277L466.254 439.276L466.252 439.276L466.25 439.275L466.248 439.274L466.247 439.274L466.245 439.273L466.243 439.273L466.241 439.272L466.239 439.271L466.238 439.271L466.236 439.27L466.234 439.27L466.232 439.269L466.23 439.268L466.229 439.268L466.227 439.267L466.225 439.267L466.223 439.266L466.222 439.265L466.22 439.265L466.218 439.264L466.216 439.264L466.214 439.263L466.213 439.262L466.211 439.262L466.209 439.261L466.207 439.26L466.205 439.26L466.204 439.259L466.202 439.259L466.2 439.258L466.198 439.257L466.197 439.257L466.195 439.256L466.193 439.256L466.191 439.255L466.189 439.254L466.188 439.254L466.186 439.253L466.184 439.253L466.182 439.252L466.18 439.251L466.179 439.251L466.177 439.25L466.175 439.25L466.173 439.249L466.172 439.248L466.17 439.248L466.168 439.247L466.166 439.247L466.164 439.246L466.163 439.245L466.161 439.245L466.159 439.244L466.157 439.244L466.155 439.243L466.154 439.242L466.152 439.242L466.15 439.241L466.148 439.241L466.147 439.24L466.145 439.239L466.143 439.239L466.141 439.238L466.139 439.238L466.138 439.237L466.136 439.236L466.134 439.236L466.132 439.235L466.13 439.235L466.129 439.234L466.127 439.233L466.125 439.233L466.123 439.232L466.122 439.231L466.12 439.231L466.118 439.23L466.116 439.23L466.114 439.229L466.113 439.228L466.111 439.228L466.109 439.227L466.107 439.227L466.106 439.226L466.104 439.225L466.102 439.225L466.1 439.224L466.098 439.224L466.097 439.223L466.095 439.222L466.093 439.222L466.091 439.221L466.089 439.221L466.088 439.22L466.086 439.219L466.084 439.219L466.082 439.218L466.081 439.218L466.079 439.217L466.077 439.216L466.075 439.216L466.073 439.215L466.072 439.215L466.07 439.214L466.068 439.213L466.066 439.213L466.064 439.212L466.063 439.212L466.061 439.211L466.059 439.21L466.057 439.21L466.056 439.209L466.054 439.209L466.052 439.208L466.05 439.207L466.048 439.207L466.047 439.206L466.045 439.206L466.043 439.205L466.041 439.204L466.04 439.204L466.038 439.203L466.036 439.203L466.034 439.202L466.032 439.201L466.031 439.201L466.029 439.2L466.027 439.199L466.025 439.199L466.023 439.198L466.022 439.198L466.02 439.197L466.018 439.196L466.016 439.196L466.015 439.195L466.013 439.195L466.011 439.194L466.009 439.193L466.007 439.193L466.006 439.192L466.004 439.192L466.002 439.191L466 439.19L465.999 439.19L465.997 439.189L465.995 439.189L465.993 439.188L465.991 439.187L465.99 439.187L465.988 439.186L465.986 439.186L465.984 439.185L465.983 439.184L465.981 439.184L465.979 439.183L465.977 439.183L465.975 439.182L465.974 439.181L465.972 439.181L465.97 439.18L465.968 439.18L465.967 439.179L465.965 439.178L465.963 439.178L465.961 439.177L464.34 438.628L464.343 438.618L463.87 438.458C463.793 438.432 463.776 438.399 463.768 438.379C463.755 438.347 463.75 438.29 463.772 438.223C463.795 438.156 463.834 438.114 463.864 438.096C463.882 438.085 463.916 438.07 463.992 438.095L465.954 438.759L465.954 438.759L465.956 438.76C466.102 438.809 466.256 438.854 466.402 438.896C466.408 438.898 466.415 438.9 466.422 438.902C466.577 438.948 466.726 438.991 466.87 439.04C467.162 439.138 467.397 439.244 467.572 439.38L467.573 439.38C467.744 439.514 467.824 439.654 467.861 439.799C467.901 439.955 467.898 440.148 467.85 440.383C467.801 440.619 467.714 440.87 467.609 441.135C467.571 441.231 467.527 441.337 467.483 441.445C467.415 441.608 467.346 441.775 467.293 441.918C467.293 441.918 467.293 441.918 467.293 441.918L466.022 445.319L466.022 445.319ZM463.201 452.16L463.181 452.148L463.511 452.041L463.505 452.056L463.505 452.056L463.504 452.059C463.493 452.087 463.476 452.114 463.454 452.135C463.432 452.156 463.406 452.173 463.377 452.182C463.348 452.192 463.317 452.195 463.286 452.191C463.256 452.188 463.226 452.177 463.201 452.16ZM462.185 451.618L462.176 451.642L459.757 450.427C459.724 450.398 459.702 450.359 459.693 450.316C459.684 450.269 459.693 450.219 459.718 450.178C459.749 450.138 459.794 450.111 459.845 450.101C459.898 450.091 459.953 450.102 459.999 450.131L460.02 450.144L460.041 450.155L462.302 451.305L462.185 451.618Z" fill="#CDCEB2" stroke="#CDCEB2"/>
<path d="M445.956 448.644L445.662 454.698L445.275 454.635L445.624 447.437L445.624 447.437L445.727 445.317L445.781 444.4C445.801 444.207 445.805 444.022 445.808 443.856C445.833 443.71 445.839 443.562 445.827 443.416C445.833 443.365 445.83 443.325 445.828 443.302C445.823 443.255 445.812 443.217 445.805 443.195C445.797 443.171 445.789 443.151 445.782 443.136C445.768 443.106 445.753 443.078 445.737 443.055C445.725 443.037 445.696 442.995 445.651 442.954C445.638 442.942 445.618 442.926 445.594 442.909C445.57 442.893 445.53 442.868 445.476 442.849C445.422 442.83 445.33 442.808 445.216 442.83C445.133 442.821 445.048 442.821 444.964 442.828L444.964 442.828L444.962 442.828L444.961 442.828L444.959 442.828L444.957 442.828L444.955 442.828L444.953 442.828L444.951 442.828L444.949 442.828L444.947 442.828L444.945 442.828L444.944 442.828L444.942 442.828L444.94 442.828L444.938 442.828L444.936 442.828L444.934 442.828L444.932 442.828L444.93 442.828L444.929 442.828L444.927 442.828L444.925 442.828L444.923 442.828L444.921 442.828L444.919 442.827L444.917 442.827L444.915 442.827L444.914 442.827L444.912 442.827L444.91 442.827L444.908 442.827L444.906 442.827L444.904 442.827L444.902 442.827L444.9 442.827L444.898 442.827L444.897 442.827L444.895 442.827L444.893 442.827L444.891 442.827L444.889 442.827L444.887 442.827L444.885 442.827L444.883 442.827L444.882 442.827L444.88 442.827L444.878 442.827L444.876 442.827L444.874 442.827L444.872 442.827L444.87 442.827L444.868 442.827L444.866 442.827L444.865 442.827L444.863 442.827L444.861 442.826L444.859 442.826L444.857 442.826L444.855 442.826L444.853 442.826L444.851 442.826L444.85 442.826L444.848 442.826L444.846 442.826L444.844 442.826L444.842 442.826L444.84 442.826L444.838 442.826L444.836 442.826L444.834 442.826L444.833 442.826L444.831 442.826L444.829 442.826L444.827 442.826L444.825 442.826L444.823 442.826L444.821 442.826L444.819 442.826L444.818 442.826L444.816 442.826L444.814 442.826L444.812 442.826L444.81 442.826L444.808 442.826L444.806 442.826L444.804 442.825L444.802 442.825L444.801 442.825L444.799 442.825L444.797 442.825L444.795 442.825L444.793 442.825L444.791 442.825L444.789 442.825L444.787 442.825L444.785 442.825L444.784 442.825L444.782 442.825L444.78 442.825L444.778 442.825L444.776 442.825L444.774 442.825L444.772 442.825L444.77 442.825L444.769 442.825L444.767 442.825L444.765 442.825L444.763 442.825L444.761 442.825L444.759 442.825L444.757 442.825L444.755 442.825L444.753 442.825L444.752 442.825L444.75 442.825L444.748 442.825L444.746 442.824L444.744 442.824L444.742 442.824L444.74 442.824L444.738 442.824L444.736 442.824L444.735 442.824L444.733 442.824L444.731 442.824L444.729 442.824L444.727 442.824L444.725 442.824L444.723 442.824L444.721 442.824L444.72 442.824L444.718 442.824L444.716 442.824L444.714 442.824L444.712 442.824L444.71 442.824L444.708 442.824L444.706 442.824L444.704 442.824L444.703 442.824L444.701 442.824L444.699 442.824L444.697 442.824L444.695 442.824L444.693 442.824L444.691 442.824L444.689 442.824L444.687 442.823L444.686 442.823L444.684 442.823L444.682 442.823L444.68 442.823L444.678 442.823L444.676 442.823L444.674 442.823L444.672 442.823L444.67 442.823L444.669 442.823L444.667 442.823L444.665 442.823L444.663 442.823L444.661 442.823L444.659 442.823L444.657 442.823L444.655 442.823L444.654 442.823L444.652 442.823L444.65 442.823L444.648 442.823L444.646 442.823L444.644 442.823L444.642 442.823L444.64 442.823L444.638 442.823L444.637 442.823L444.635 442.823L444.633 442.823L444.631 442.822L444.629 442.822L444.627 442.822L444.625 442.822L444.623 442.822L444.621 442.822L444.62 442.822L444.618 442.822L444.616 442.822L444.614 442.822L444.612 442.822L444.61 442.822L444.608 442.822L444.606 442.822L444.604 442.822L444.603 442.822L444.601 442.822L444.599 442.822L444.597 442.822L444.595 442.822L444.593 442.822L444.591 442.822L444.589 442.822L444.587 442.822L444.586 442.822L444.584 442.822L444.582 442.822L444.58 442.822L444.578 442.822L444.576 442.822L444.574 442.822L444.572 442.821L444.57 442.821L444.569 442.821L444.567 442.821L444.565 442.821L444.563 442.821L444.561 442.821L444.559 442.821L444.557 442.821L444.555 442.821L444.554 442.821L444.552 442.821L444.55 442.821L444.548 442.821L444.546 442.821L444.544 442.821L444.542 442.821L444.54 442.821L444.538 442.821L444.537 442.821L444.535 442.821L444.533 442.821L444.531 442.821L444.529 442.821L444.527 442.821L444.525 442.821L444.523 442.821L444.521 442.821L444.52 442.821L444.518 442.821L444.516 442.82L444.514 442.82L444.512 442.82L444.51 442.82L444.508 442.82L444.506 442.82L444.504 442.82L444.503 442.82L444.501 442.82L444.499 442.82L444.497 442.82L444.495 442.82L444.493 442.82L444.491 442.82L444.489 442.82L444.487 442.82L444.486 442.82L444.484 442.82L444.482 442.82L444.48 442.82L444.478 442.82L444.476 442.82L444.474 442.82L444.472 442.82L444.47 442.82L444.469 442.82L444.467 442.82L444.465 442.82L444.463 442.82L444.461 442.82L444.459 442.82L444.457 442.819L444.455 442.819L444.454 442.819L444.452 442.819L444.45 442.819L444.448 442.819L444.446 442.819L444.444 442.819L444.442 442.819L444.44 442.819L444.438 442.819L444.437 442.819L444.435 442.819L444.433 442.819L444.431 442.819L444.429 442.819L444.427 442.819L444.425 442.819L444.423 442.819L444.421 442.819L444.42 442.819L444.418 442.819L444.416 442.819L444.414 442.819L444.412 442.819L444.41 442.819L444.408 442.819L444.406 442.819L444.404 442.819L444.403 442.819L444.401 442.818L444.399 442.818L444.397 442.818L444.395 442.818L444.393 442.818L444.391 442.818L444.389 442.818L444.387 442.818L444.386 442.818L444.384 442.818L444.382 442.818L444.38 442.818L444.378 442.818L444.376 442.818L444.374 442.818L444.372 442.818L444.371 442.818L444.369 442.818L444.367 442.818L444.365 442.818L444.363 442.818L444.361 442.818L444.359 442.818L444.357 442.818L444.355 442.818L444.354 442.818L444.352 442.818L444.35 442.818L444.348 442.818L444.346 442.818L444.344 442.818L444.342 442.817L444.34 442.817L444.338 442.817L444.337 442.817L444.335 442.817L444.333 442.817L444.331 442.817L444.329 442.817L444.327 442.817L444.325 442.817L444.323 442.817L444.321 442.817L444.32 442.817L444.318 442.817L444.316 442.817L444.314 442.817L444.312 442.817L444.31 442.817L444.308 442.817L444.306 442.817L444.304 442.817L444.303 442.817L444.301 442.817L444.299 442.817L444.297 442.817L444.295 442.817L444.293 442.817L444.291 442.817L444.289 442.817L444.288 442.817L444.286 442.816L444.284 442.816L444.282 442.816L444.28 442.816L444.278 442.816L444.276 442.816L444.274 442.816L444.272 442.816L444.271 442.816L444.269 442.816L444.267 442.816L444.265 442.816L444.263 442.816L444.261 442.816L444.259 442.816L444.257 442.816L444.255 442.816L444.254 442.816L444.252 442.816L444.25 442.816L444.248 442.816L444.246 442.816L444.244 442.816L444.242 442.816L444.24 442.816L444.239 442.816L444.237 442.816L444.235 442.816L444.233 442.816L444.231 442.816L444.229 442.816L444.227 442.815L444.225 442.815L444.223 442.815L444.222 442.815L444.22 442.815L444.218 442.815L444.216 442.815L444.214 442.815L444.212 442.815L444.21 442.815L444.208 442.815L444.207 442.815L444.205 442.815L444.203 442.815L444.201 442.815L444.199 442.815L444.197 442.815L444.195 442.815L444.193 442.815L444.191 442.815L444.19 442.815L444.188 442.815L444.186 442.815L444.184 442.815L444.182 442.815L444.18 442.815L444.178 442.815L444.176 442.815L444.174 442.815L444.173 442.815L444.171 442.815L444.169 442.814L444.167 442.814L444.165 442.814L444.163 442.814L444.161 442.814L444.159 442.814L444.158 442.814L444.156 442.814L444.154 442.814L444.152 442.814L444.15 442.814L444.148 442.814L444.146 442.814L444.144 442.814L444.142 442.814L444.141 442.814L444.139 442.814L444.137 442.814L444.135 442.814L444.133 442.814L444.131 442.814L444.129 442.814L444.127 442.814L444.126 442.814L444.124 442.814L444.122 442.814L444.12 442.814L444.118 442.814L444.116 442.814L444.114 442.814L444.112 442.813L444.11 442.813L444.109 442.813L444.107 442.813L444.105 442.813L444.103 442.813L444.101 442.813L444.099 442.813L444.097 442.813L444.095 442.813L444.094 442.813L444.092 442.813L444.09 442.813L444.088 442.813L444.086 442.813L444.084 442.813L444.082 442.813L444.08 442.813L444.079 442.813L444.077 442.813L444.075 442.813L444.073 442.813L444.071 442.813L444.069 442.813L444.067 442.813L444.065 442.813L444.063 442.813L444.062 442.813L444.06 442.813L444.058 442.813L444.056 442.813L444.054 442.812L444.052 442.812L444.05 442.812L444.048 442.812L444.047 442.812L444.045 442.812L444.043 442.812L444.041 442.812L444.039 442.812L444.037 442.812L444.035 442.812L444.033 442.812L444.032 442.812L444.03 442.812L442.318 442.782L442.318 442.771L441.818 442.763C441.738 442.761 441.711 442.735 441.698 442.719C441.676 442.692 441.653 442.639 441.654 442.569C441.655 442.498 441.68 442.446 441.703 442.42C441.717 442.404 441.744 442.379 441.825 442.38L443.896 442.416L443.896 442.416L443.898 442.416C444.052 442.418 444.212 442.414 444.364 442.41C444.371 442.41 444.378 442.41 444.385 442.41C444.547 442.406 444.702 442.402 444.853 442.405C445.162 442.409 445.418 442.439 445.626 442.515L445.626 442.515C445.83 442.59 445.949 442.7 446.029 442.827C446.114 442.963 446.17 443.147 446.196 443.387C446.221 443.626 446.214 443.892 446.195 444.176C446.188 444.279 446.179 444.393 446.169 444.51C446.154 444.686 446.139 444.866 446.132 445.017C446.132 445.017 446.132 445.017 446.132 445.017L445.956 448.644L445.956 448.644ZM445.349 456.02L445.326 456.014L445.608 455.812L445.607 455.827L445.607 455.827L445.607 455.831C445.606 455.861 445.598 455.891 445.583 455.918C445.569 455.945 445.548 455.969 445.524 455.987C445.499 456.005 445.47 456.018 445.44 456.023C445.41 456.029 445.379 456.028 445.349 456.02ZM444.217 455.812L444.215 455.838L441.541 455.416C441.501 455.399 441.468 455.368 441.447 455.33C441.424 455.287 441.417 455.238 441.428 455.191C441.446 455.143 441.481 455.103 441.526 455.079C441.574 455.053 441.629 455.047 441.682 455.06L441.705 455.067L441.729 455.071L444.233 455.478L444.217 455.812Z" fill="#CDCEB2" stroke="#CDCEB2"/>
<path d="M444.368 417.309C444.166 417.284 443.964 417.25 443.763 417.207C443.905 420.582 444.007 423.973 443.89 427.364C443.829 429.379 443.666 431.389 443.401 433.386L443.4 433.392L443.4 433.392C443.109 435.39 442.712 437.37 442.21 439.324C442.181 439.442 442.152 439.559 442.123 439.677C441.197 443.448 440.291 447.136 440.543 450.985C440.707 453.012 440.994 455.026 441.4 457.017L441.401 457.024L441.401 457.024C441.432 457.187 441.459 457.344 441.485 457.497C441.532 457.768 441.576 458.029 441.639 458.298C441.733 458.704 441.855 459.064 442.043 459.369L442.043 459.369C442.461 460.049 443.198 460.332 444.12 460.607L444.121 460.607C447.718 461.686 451.528 461.789 455.177 460.907L455.177 460.907C456.008 460.706 456.681 460.484 457.074 459.929C457.28 459.633 457.382 459.258 457.426 458.808C457.458 458.494 457.459 458.19 457.462 457.871C457.463 457.714 457.464 457.553 457.468 457.385M444.368 417.309L457.968 457.398M444.368 417.309C444.378 417.542 444.388 417.775 444.397 418.008L444.397 418.008L444.397 418.014C444.592 421.784 444.592 425.563 444.398 429.333C444.279 431.247 444.063 433.154 443.75 435.045C443.446 436.865 443.004 438.67 442.553 440.467C442.103 442.262 441.65 444.084 441.364 445.942L441.364 445.945C441.084 447.818 441.028 449.719 441.195 451.606L441.195 451.606L441.196 451.611C441.386 453.501 441.674 455.379 442.059 457.238C442.071 457.309 442.085 457.395 442.099 457.489C442.138 457.741 442.187 458.058 442.264 458.335C442.375 458.734 442.577 459.202 443.02 459.498L443.035 459.508L443.051 459.517C443.439 459.737 443.855 459.899 444.289 459.999C444.714 460.129 445.144 460.243 445.572 460.344L445.574 460.345C447.306 460.745 449.08 460.919 450.855 460.862C451.751 460.838 452.643 460.754 453.528 460.609C454.357 460.52 455.173 460.331 455.959 460.047L455.975 460.041L455.991 460.034C456.545 459.789 456.756 459.326 456.829 458.9C456.864 458.697 456.871 458.491 456.872 458.311C456.872 458.231 456.872 458.161 456.871 458.096C456.87 457.998 456.87 457.911 456.872 457.817C456.902 456.823 456.917 455.829 456.917 454.835C456.917 452.866 456.865 450.907 456.761 448.959L456.761 448.959C456.662 447.124 456.486 445.268 455.626 443.505C455.255 442.742 454.845 442.002 454.441 441.276L454.386 441.177C453.963 440.414 453.55 439.665 453.183 438.891L453.183 438.891C451.677 435.716 450.576 432.356 449.908 428.895L444.368 417.309ZM457.468 457.385C457.468 457.385 457.468 457.385 457.468 457.385L457.968 457.398M457.468 457.385C457.468 457.385 457.468 457.386 457.468 457.386L457.968 457.398M457.468 457.385C457.519 455.309 457.509 453.235 457.44 451.161M457.968 457.398C458.019 455.313 458.009 453.228 457.939 451.144M457.44 451.161L457.939 451.144M457.44 451.161C457.44 451.161 457.44 451.161 457.44 451.161L457.939 451.144M457.44 451.161L457.939 451.144M448.754 416.382C448.986 417.02 449.094 417.702 449.132 418.309L449.132 418.309C449.188 419.204 449.185 420.096 449.182 420.969L449.182 421.012C449.178 421.904 449.176 422.779 449.234 423.656C449.35 425.415 449.575 427.165 449.908 428.895L448.754 416.382ZM448.754 416.382C448.913 416.218 449.028 416.015 449.086 415.791C449.092 415.766 449.098 415.741 449.103 415.716C449.466 416.488 449.652 417.375 449.714 418.296L449.714 418.297C449.758 418.943 449.749 419.588 449.74 420.243C449.735 420.551 449.731 420.861 449.732 421.173C449.735 422.126 449.774 423.075 449.841 424.022L449.841 424.024C449.98 425.895 450.248 427.753 450.644 429.586C450.644 429.586 450.644 429.586 450.644 429.586L448.754 416.382ZM443.761 416.181C443.746 416.176 443.732 416.17 443.718 416.163C443.71 415.973 443.701 415.784 443.693 415.594L443.708 415.591L443.703 415.477L444.23 416.181L444.313 416.292C444.128 416.263 443.944 416.226 443.761 416.181ZM447.796 414.073C447.835 414.102 447.874 414.132 447.911 414.163C447.669 414.148 447.425 414.201 447.209 414.318C447.175 414.334 447.142 414.349 447.108 414.365C447.091 414.356 447.074 414.347 447.057 414.339C446.763 414.186 446.437 414.106 446.105 414.106C445.779 414.106 445.457 414.184 445.166 414.332C445.112 414.355 445.06 414.381 445.009 414.41C444.874 414.237 444.699 414.11 444.509 414.026C444.939 413.714 445.448 413.532 445.978 413.504C446.628 413.469 447.271 413.669 447.793 414.07L447.793 414.07L447.796 414.073ZM447.434 415.965C446.757 416.22 446.045 416.354 445.329 416.363C445.32 416.161 445.311 415.959 445.302 415.757C445.876 415.755 446.447 415.662 446.995 415.48C447.161 415.616 447.307 415.779 447.434 415.965Z" fill="#CDCEB2" stroke="#CDCEB2"/>
<path d="M32.9559 276.644L32.6621 282.698L32.275 282.635L32.6244 275.437L32.6244 275.437L32.7274 273.317L32.7815 272.4C32.8013 272.207 32.8055 272.022 32.8084 271.856C32.8327 271.71 32.839 271.562 32.8272 271.416C32.8332 271.365 32.8303 271.325 32.8279 271.302C32.8229 271.255 32.8123 271.217 32.8051 271.195C32.7974 271.171 32.7889 271.151 32.7819 271.136C32.7682 271.106 32.7526 271.078 32.7369 271.055C32.7248 271.037 32.6962 270.995 32.6508 270.954C32.6377 270.942 32.6185 270.926 32.5936 270.909C32.5703 270.893 32.5301 270.868 32.4756 270.849C32.4223 270.83 32.3296 270.808 32.2165 270.83C32.1329 270.821 32.0485 270.821 31.9645 270.828L31.9643 270.828L31.9624 270.828L31.9605 270.828L31.9586 270.828L31.9568 270.828L31.9549 270.828L31.953 270.828L31.9511 270.828L31.9492 270.828L31.9474 270.828L31.9455 270.828L31.9436 270.828L31.9417 270.828L31.9398 270.828L31.938 270.828L31.9361 270.828L31.9342 270.828L31.9323 270.828L31.9304 270.828L31.9286 270.828L31.9267 270.828L31.9248 270.828L31.9229 270.828L31.921 270.828L31.9192 270.827L31.9173 270.827L31.9154 270.827L31.9135 270.827L31.9116 270.827L31.9097 270.827L31.9079 270.827L31.906 270.827L31.9041 270.827L31.9022 270.827L31.9003 270.827L31.8985 270.827L31.8966 270.827L31.8947 270.827L31.8928 270.827L31.8909 270.827L31.889 270.827L31.8872 270.827L31.8853 270.827L31.8834 270.827L31.8815 270.827L31.8796 270.827L31.8778 270.827L31.8759 270.827L31.874 270.827L31.8721 270.827L31.8702 270.827L31.8683 270.827L31.8665 270.827L31.8646 270.827L31.8627 270.827L31.8608 270.826L31.8589 270.826L31.857 270.826L31.8552 270.826L31.8533 270.826L31.8514 270.826L31.8495 270.826L31.8476 270.826L31.8458 270.826L31.8439 270.826L31.842 270.826L31.8401 270.826L31.8382 270.826L31.8363 270.826L31.8345 270.826L31.8326 270.826L31.8307 270.826L31.8288 270.826L31.8269 270.826L31.825 270.826L31.8232 270.826L31.8213 270.826L31.8194 270.826L31.8175 270.826L31.8156 270.826L31.8137 270.826L31.8119 270.826L31.81 270.826L31.8081 270.826L31.8062 270.826L31.8043 270.825L31.8024 270.825L31.8005 270.825L31.7987 270.825L31.7968 270.825L31.7949 270.825L31.793 270.825L31.7911 270.825L31.7892 270.825L31.7874 270.825L31.7855 270.825L31.7836 270.825L31.7817 270.825L31.7798 270.825L31.7779 270.825L31.7761 270.825L31.7742 270.825L31.7723 270.825L31.7704 270.825L31.7685 270.825L31.7666 270.825L31.7647 270.825L31.7629 270.825L31.761 270.825L31.7591 270.825L31.7572 270.825L31.7553 270.825L31.7534 270.825L31.7516 270.825L31.7497 270.825L31.7478 270.825L31.7459 270.824L31.744 270.824L31.7421 270.824L31.7402 270.824L31.7384 270.824L31.7365 270.824L31.7346 270.824L31.7327 270.824L31.7308 270.824L31.7289 270.824L31.727 270.824L31.7252 270.824L31.7233 270.824L31.7214 270.824L31.7195 270.824L31.7176 270.824L31.7157 270.824L31.7138 270.824L31.712 270.824L31.7101 270.824L31.7082 270.824L31.7063 270.824L31.7044 270.824L31.7025 270.824L31.7006 270.824L31.6988 270.824L31.6969 270.824L31.695 270.824L31.6931 270.824L31.6912 270.824L31.6893 270.824L31.6874 270.823L31.6856 270.823L31.6837 270.823L31.6818 270.823L31.6799 270.823L31.678 270.823L31.6761 270.823L31.6742 270.823L31.6724 270.823L31.6705 270.823L31.6686 270.823L31.6667 270.823L31.6648 270.823L31.6629 270.823L31.661 270.823L31.6592 270.823L31.6573 270.823L31.6554 270.823L31.6535 270.823L31.6516 270.823L31.6497 270.823L31.6478 270.823L31.646 270.823L31.6441 270.823L31.6422 270.823L31.6403 270.823L31.6384 270.823L31.6365 270.823L31.6346 270.823L31.6328 270.823L31.6309 270.822L31.629 270.822L31.6271 270.822L31.6252 270.822L31.6233 270.822L31.6214 270.822L31.6195 270.822L31.6177 270.822L31.6158 270.822L31.6139 270.822L31.612 270.822L31.6101 270.822L31.6082 270.822L31.6063 270.822L31.6045 270.822L31.6026 270.822L31.6007 270.822L31.5988 270.822L31.5969 270.822L31.595 270.822L31.5931 270.822L31.5912 270.822L31.5894 270.822L31.5875 270.822L31.5856 270.822L31.5837 270.822L31.5818 270.822L31.5799 270.822L31.578 270.822L31.5762 270.822L31.5743 270.822L31.5724 270.821L31.5705 270.821L31.5686 270.821L31.5667 270.821L31.5648 270.821L31.5629 270.821L31.5611 270.821L31.5592 270.821L31.5573 270.821L31.5554 270.821L31.5535 270.821L31.5516 270.821L31.5497 270.821L31.5479 270.821L31.546 270.821L31.5441 270.821L31.5422 270.821L31.5403 270.821L31.5384 270.821L31.5365 270.821L31.5346 270.821L31.5328 270.821L31.5309 270.821L31.529 270.821L31.5271 270.821L31.5252 270.821L31.5233 270.821L31.5214 270.821L31.5195 270.821L31.5177 270.821L31.5158 270.82L31.5139 270.82L31.512 270.82L31.5101 270.82L31.5082 270.82L31.5063 270.82L31.5045 270.82L31.5026 270.82L31.5007 270.82L31.4988 270.82L31.4969 270.82L31.495 270.82L31.4931 270.82L31.4912 270.82L31.4894 270.82L31.4875 270.82L31.4856 270.82L31.4837 270.82L31.4818 270.82L31.4799 270.82L31.478 270.82L31.4762 270.82L31.4743 270.82L31.4724 270.82L31.4705 270.82L31.4686 270.82L31.4667 270.82L31.4648 270.82L31.4629 270.82L31.4611 270.82L31.4592 270.82L31.4573 270.819L31.4554 270.819L31.4535 270.819L31.4516 270.819L31.4497 270.819L31.4478 270.819L31.446 270.819L31.4441 270.819L31.4422 270.819L31.4403 270.819L31.4384 270.819L31.4365 270.819L31.4346 270.819L31.4328 270.819L31.4309 270.819L31.429 270.819L31.4271 270.819L31.4252 270.819L31.4233 270.819L31.4214 270.819L31.4195 270.819L31.4177 270.819L31.4158 270.819L31.4139 270.819L31.412 270.819L31.4101 270.819L31.4082 270.819L31.4063 270.819L31.4045 270.819L31.4026 270.819L31.4007 270.818L31.3988 270.818L31.3969 270.818L31.395 270.818L31.3931 270.818L31.3913 270.818L31.3894 270.818L31.3875 270.818L31.3856 270.818L31.3837 270.818L31.3818 270.818L31.3799 270.818L31.378 270.818L31.3762 270.818L31.3743 270.818L31.3724 270.818L31.3705 270.818L31.3686 270.818L31.3667 270.818L31.3648 270.818L31.363 270.818L31.3611 270.818L31.3592 270.818L31.3573 270.818L31.3554 270.818L31.3535 270.818L31.3516 270.818L31.3498 270.818L31.3479 270.818L31.346 270.818L31.3441 270.818L31.3422 270.817L31.3403 270.817L31.3384 270.817L31.3366 270.817L31.3347 270.817L31.3328 270.817L31.3309 270.817L31.329 270.817L31.3271 270.817L31.3252 270.817L31.3234 270.817L31.3215 270.817L31.3196 270.817L31.3177 270.817L31.3158 270.817L31.3139 270.817L31.312 270.817L31.3102 270.817L31.3083 270.817L31.3064 270.817L31.3045 270.817L31.3026 270.817L31.3007 270.817L31.2988 270.817L31.297 270.817L31.2951 270.817L31.2932 270.817L31.2913 270.817L31.2894 270.817L31.2875 270.817L31.2856 270.816L31.2838 270.816L31.2819 270.816L31.28 270.816L31.2781 270.816L31.2762 270.816L31.2743 270.816L31.2725 270.816L31.2706 270.816L31.2687 270.816L31.2668 270.816L31.2649 270.816L31.263 270.816L31.2611 270.816L31.2593 270.816L31.2574 270.816L31.2555 270.816L31.2536 270.816L31.2517 270.816L31.2498 270.816L31.248 270.816L31.2461 270.816L31.2442 270.816L31.2423 270.816L31.2404 270.816L31.2385 270.816L31.2366 270.816L31.2348 270.816L31.2329 270.816L31.231 270.816L31.2291 270.816L31.2272 270.815L31.2253 270.815L31.2235 270.815L31.2216 270.815L31.2197 270.815L31.2178 270.815L31.2159 270.815L31.214 270.815L31.2122 270.815L31.2103 270.815L31.2084 270.815L31.2065 270.815L31.2046 270.815L31.2027 270.815L31.2009 270.815L31.199 270.815L31.1971 270.815L31.1952 270.815L31.1933 270.815L31.1914 270.815L31.1896 270.815L31.1877 270.815L31.1858 270.815L31.1839 270.815L31.182 270.815L31.1801 270.815L31.1783 270.815L31.1764 270.815L31.1745 270.815L31.1726 270.815L31.1707 270.815L31.1688 270.814L31.167 270.814L31.1651 270.814L31.1632 270.814L31.1613 270.814L31.1594 270.814L31.1575 270.814L31.1557 270.814L31.1538 270.814L31.1519 270.814L31.15 270.814L31.1481 270.814L31.1462 270.814L31.1444 270.814L31.1425 270.814L31.1406 270.814L31.1387 270.814L31.1368 270.814L31.135 270.814L31.1331 270.814L31.1312 270.814L31.1293 270.814L31.1274 270.814L31.1255 270.814L31.1237 270.814L31.1218 270.814L31.1199 270.814L31.118 270.814L31.1161 270.814L31.1143 270.814L31.1124 270.813L31.1105 270.813L31.1086 270.813L31.1067 270.813L31.1048 270.813L31.103 270.813L31.1011 270.813L31.0992 270.813L31.0973 270.813L31.0954 270.813L31.0936 270.813L31.0917 270.813L31.0898 270.813L31.0879 270.813L31.086 270.813L31.0842 270.813L31.0823 270.813L31.0804 270.813L31.0785 270.813L31.0766 270.813L31.0748 270.813L31.0729 270.813L31.071 270.813L31.0691 270.813L31.0672 270.813L31.0654 270.813L31.0635 270.813L31.0616 270.813L31.0597 270.813L31.0578 270.813L31.056 270.813L31.0541 270.812L31.0522 270.812L31.0503 270.812L31.0484 270.812L31.0466 270.812L31.0447 270.812L31.0428 270.812L31.0409 270.812L31.039 270.812L31.0372 270.812L31.0353 270.812L31.0334 270.812L31.0315 270.812L31.0297 270.812L29.3182 270.782L29.3184 270.771L28.8185 270.763C28.7378 270.761 28.7113 270.735 28.6978 270.719C28.6756 270.692 28.653 270.639 28.6542 270.569C28.6554 270.498 28.6799 270.446 28.703 270.42C28.717 270.404 28.7444 270.379 28.8251 270.38L30.8955 270.416L30.8955 270.416L30.8978 270.416C31.0519 270.418 31.2118 270.414 31.3637 270.41C31.3708 270.41 31.378 270.41 31.3851 270.41C31.5469 270.406 31.7015 270.402 31.8535 270.405C32.1616 270.409 32.4181 270.439 32.6257 270.515L32.6264 270.515C32.8305 270.59 32.9493 270.7 33.0285 270.827C33.1139 270.963 33.1697 271.147 33.1955 271.387C33.2213 271.626 33.2144 271.892 33.1951 272.176C33.1882 272.279 33.1786 272.393 33.1689 272.51C33.1543 272.686 33.1393 272.866 33.1321 273.017C33.1321 273.017 33.1321 273.017 33.1321 273.017L32.9559 276.644L32.9559 276.644ZM32.349 284.02L32.3263 284.014L32.608 283.812L32.6073 283.827L32.6072 283.827L32.6071 283.831C32.6058 283.861 32.5976 283.891 32.5832 283.918C32.5687 283.945 32.5483 283.969 32.5235 283.987C32.4987 284.005 32.4702 284.018 32.44 284.023C32.4098 284.029 32.3787 284.028 32.349 284.02ZM31.2167 283.812L31.2154 283.838L28.5409 283.416C28.5011 283.399 28.468 283.368 28.447 283.33C28.4237 283.287 28.4171 283.238 28.4282 283.191C28.4463 283.143 28.4809 283.103 28.5258 283.079C28.5736 283.053 28.6295 283.047 28.682 283.06L28.7055 283.067L28.7294 283.071L31.2329 283.478L31.2167 283.812Z" fill="#CDCEB2" stroke="#CDCEB2"/>
<path d="M31.3683 245.309C31.1658 245.284 30.9639 245.25 30.7631 245.207C30.9047 248.582 31.0066 251.973 30.8899 255.364C30.829 257.379 30.6657 259.389 30.4005 261.386L30.3997 261.392L30.3996 261.392C30.1088 263.39 29.7117 265.37 29.2099 267.324C29.181 267.442 29.1522 267.559 29.1233 267.677C28.197 271.448 27.2909 275.136 27.5425 278.985C27.7075 281.012 27.9937 283.026 28.3997 285.017L28.4011 285.024L28.401 285.024C28.432 285.187 28.4589 285.344 28.4852 285.497C28.5317 285.768 28.5764 286.029 28.6387 286.298C28.7329 286.704 28.8547 287.064 29.0426 287.369L29.0428 287.369C29.4615 288.049 30.1977 288.332 31.1198 288.607L31.1206 288.607C34.7176 289.686 38.5284 289.789 42.1766 288.907L42.177 288.907C43.0084 288.706 43.6807 288.484 44.0737 287.929C44.2805 287.633 44.3815 287.258 44.4264 286.808C44.4575 286.494 44.4595 286.19 44.4615 285.871C44.4625 285.714 44.4635 285.553 44.4681 285.385M31.3683 245.309L44.9679 285.398M31.3683 245.309C31.3781 245.542 31.3877 245.775 31.3972 246.008L31.3972 246.008L31.3974 246.014C31.5916 249.784 31.5916 253.563 31.3976 257.333C31.2792 259.247 31.0631 261.154 30.7502 263.045C30.4462 264.865 30.0037 266.67 29.5531 268.467C29.1034 270.262 28.6503 272.084 28.364 273.942L28.3636 273.945C28.0841 275.818 28.0276 277.719 28.1952 279.606L28.1951 279.606L28.1957 279.611C28.3859 281.501 28.674 283.379 29.0587 285.238C29.0714 285.309 29.0846 285.395 29.0992 285.489C29.138 285.741 29.1867 286.058 29.2637 286.335C29.3747 286.734 29.5772 287.202 30.0203 287.498L30.0354 287.508L30.0512 287.517C30.4387 287.737 30.8554 287.899 31.2887 287.999C31.7138 288.129 32.1437 288.243 32.5718 288.344L32.574 288.345C34.3058 288.745 36.0805 288.919 37.8554 288.862C38.7507 288.838 39.6434 288.754 40.5277 288.609C41.3573 288.52 42.1735 288.331 42.9592 288.047L42.9755 288.041L42.9913 288.034C43.5452 287.789 43.7557 287.326 43.8291 286.9C43.8643 286.697 43.871 286.491 43.8719 286.311C43.8722 286.231 43.8717 286.161 43.8711 286.096C43.8703 285.998 43.8695 285.911 43.8723 285.817C43.902 284.823 43.9169 283.829 43.9169 282.835C43.9169 280.866 43.8649 278.907 43.7608 276.959L43.7608 276.959C43.6622 275.124 43.486 273.268 42.6263 271.505C42.2554 270.742 41.8446 270.002 41.4413 269.276L41.3863 269.177C40.963 268.414 40.5495 267.665 40.1831 266.891L40.183 266.891C38.677 263.716 37.5762 260.356 36.9077 256.895L31.3683 245.309ZM44.4681 285.385C44.4681 285.385 44.4681 285.385 44.4681 285.385L44.9679 285.398M44.4681 285.385C44.4681 285.385 44.4681 285.386 44.4681 285.386L44.9679 285.398M44.4681 285.385C44.5186 283.309 44.5091 281.235 44.4397 279.161M44.9679 285.398C45.0187 283.313 45.0092 281.228 44.9394 279.144M44.4397 279.161L44.9394 279.144M44.4397 279.161C44.4397 279.161 44.4397 279.161 44.4397 279.161L44.9394 279.144M44.4397 279.161L44.9394 279.144M35.7537 244.382C35.986 245.02 36.0943 245.702 36.1322 246.309L36.1322 246.309C36.188 247.204 36.1849 248.096 36.1817 248.969L36.1816 249.012C36.1784 249.904 36.1763 250.779 36.2336 251.656C36.3499 253.415 36.575 255.165 36.9076 256.895L35.7537 244.382ZM35.7537 244.382C35.9129 244.218 36.028 244.015 36.0858 243.791C36.0922 243.766 36.0979 243.741 36.1029 243.716C36.4662 244.488 36.6523 245.375 36.7139 246.296L36.714 246.297C36.7583 246.943 36.7491 247.588 36.7396 248.243C36.7352 248.551 36.7308 248.861 36.7318 249.173C36.735 250.126 36.7736 251.075 36.8409 252.022L36.841 252.024C36.9801 253.895 37.2484 255.753 37.6438 257.586C37.6438 257.586 37.6439 257.586 37.6439 257.586L35.7537 244.382ZM30.7611 244.181C30.7464 244.176 30.732 244.17 30.7181 244.163C30.7098 243.973 30.7014 243.784 30.693 243.594L30.7081 243.591L30.7032 243.477L31.2302 244.181L31.3135 244.292C31.1284 244.263 30.9441 244.226 30.7611 244.181ZM34.7961 242.073C34.8353 242.102 34.8737 242.132 34.9115 242.163C34.6688 242.148 34.4252 242.201 34.2086 242.318C34.1752 242.334 34.1417 242.349 34.1081 242.365C34.0912 242.356 34.0742 242.347 34.0571 242.339C33.7629 242.186 33.4367 242.106 33.1052 242.106C32.7787 242.106 32.4571 242.184 32.1662 242.332C32.1125 242.355 32.0601 242.381 32.0094 242.41C31.8744 242.237 31.6991 242.11 31.5089 242.026C31.9385 241.714 32.4478 241.532 32.9777 241.504C33.628 241.469 34.2705 241.669 34.7927 242.07L34.7927 242.07L34.7961 242.073ZM34.4337 243.965C33.7573 244.22 33.0452 244.354 32.3289 244.363C32.3202 244.161 32.3113 243.959 32.3024 243.757C32.876 243.755 33.4473 243.662 33.9951 243.48C34.1611 243.616 34.3067 243.779 34.4337 243.965Z" fill="#CDCEB2" stroke="#CDCEB2"/>
<path d="M35.7919 125H36.5059V116.838H36.8419L40.0479 122.984H40.9579L44.1639 116.838H44.4999V125H45.2139V115.34H43.9959L40.6499 121.458H40.2999L36.9679 115.34H35.7919V125Z" fill="#7B3126"/>
<path d="M126.811 115.34H119.195V116.404H122.639V125H123.353V116.404H126.811V115.34Z" fill="#7B3126"/>
<path d="M203.053 125H204.103L206.763 117.104H207.239L209.899 125H210.963L214.183 115.34H213.371L210.571 123.376H210.179L207.379 115.34H206.581L203.795 123.376H203.403L200.589 115.34H199.819L203.053 125Z" fill="#7B3126"/>
<path d="M294.811 115.34H287.195V116.404H290.639V125H291.353V116.404H294.811V115.34Z" fill="#7B3126"/>
<path d="M378.492 116.404V115.34H372.206V125H372.92V120.758H377.89V119.694H372.92V116.404H378.492Z" fill="#7B3126"/>
<path d="M459.052 125.168C460.998 125.168 462.636 124.09 462.636 122.396C462.636 120.912 461.376 120.002 459.192 119.582C458.38 119.428 456.336 119.008 456.336 117.776C456.336 116.824 457.512 116.208 458.954 116.208C460.522 116.208 461.684 116.936 461.684 117.888H462.426C462.426 116.348 460.956 115.172 458.982 115.172C457.092 115.172 455.594 116.222 455.594 117.832C455.594 119.232 456.742 120.17 458.814 120.576C459.892 120.786 461.88 121.206 461.88 122.466C461.88 123.474 460.62 124.132 459.08 124.132C457.4 124.132 456.126 123.362 456.126 122.34H455.384C455.384 123.95 456.952 125.168 459.052 125.168Z" fill="#7B3126"/>
<path d="M543.052 125.168C544.998 125.168 546.636 124.09 546.636 122.396C546.636 120.912 545.376 120.002 543.192 119.582C542.38 119.428 540.336 119.008 540.336 117.776C540.336 116.824 541.512 116.208 542.954 116.208C544.522 116.208 545.684 116.936 545.684 117.888H546.426C546.426 116.348 544.956 115.172 542.982 115.172C541.092 115.172 539.594 116.222 539.594 117.832C539.594 119.232 540.742 120.17 542.814 120.576C543.892 120.786 545.88 121.206 545.88 122.466C545.88 123.474 544.62 124.132 543.08 124.132C541.4 124.132 540.126 123.362 540.126 122.34H539.384C539.384 123.95 540.952 125.168 543.052 125.168Z" fill="#7B3126"/>
<path d="M159.752 142.206H158.73V136.34H156.098L152.276 142.626V144.264H156.994V146H158.73V144.264H159.752V142.206ZM154.306 142.206L156.868 138.174H156.994V142.206H154.306Z" fill="#CDCEB2"/>
<path d="M240.372 139.686C239.742 139.686 239.042 139.896 238.608 140.218L238.734 138.454H243.13V136.34H237.236L236.718 142.206H238.552C238.86 141.94 239.546 141.73 240.162 141.73C241.212 141.73 241.996 142.22 241.996 142.878C241.996 143.522 241.212 144.012 240.162 144.012C239.266 144.012 238.552 143.648 238.37 143.144H236.564C236.676 144.88 238.188 146.168 240.162 146.168C242.22 146.168 243.774 144.782 243.774 142.934C243.774 141.072 242.304 139.686 240.372 139.686Z" fill="#CDCEB2"/>
<path d="M324.494 139.728C323.78 139.728 323.066 139.994 322.534 140.414C323.066 139.112 324.494 138.342 326.454 138.342V136.228C322.814 136.228 320.434 138.706 320.434 141.996C320.434 144.6 321.96 146.168 324.158 146.168C326.244 146.168 327.728 144.74 327.728 142.878C327.728 141.086 326.342 139.728 324.494 139.728ZM324.102 144.012C323.066 144.012 322.268 143.536 322.268 142.92C322.268 142.29 323.066 141.828 324.13 141.828C325.166 141.828 325.95 142.29 325.95 142.92C325.95 143.536 325.152 144.012 324.102 144.012Z" fill="#CDCEB2"/>
<path d="M404.703 136.34V138.454H409.393L405.375 146H407.629L411.465 137.964V136.34H404.703Z" fill="#CDCEB2"/>
<path d="M494.278 140.974C494.992 140.484 495.454 139.756 495.454 138.902C495.454 137.376 493.984 136.172 491.996 136.172C490.008 136.172 488.552 137.376 488.552 138.902C488.552 139.756 489 140.484 489.728 140.974C488.86 141.492 488.328 142.29 488.328 143.256C488.328 144.908 489.924 146.168 491.996 146.168C494.082 146.168 495.678 144.894 495.678 143.256C495.678 142.29 495.132 141.478 494.278 140.974ZM491.996 138.328C492.99 138.328 493.676 138.664 493.676 139.126C493.676 139.616 492.99 139.966 491.996 139.966C491.016 139.966 490.33 139.616 490.33 139.126C490.33 138.664 491.016 138.328 491.996 138.328ZM491.996 144.012C490.876 144.012 490.106 143.606 490.106 143.046C490.106 142.458 490.876 142.052 491.996 142.052C493.13 142.052 493.9 142.458 493.9 143.046C493.9 143.606 493.13 144.012 491.996 144.012Z" fill="#CDCEB2"/>
<path d="M576.836 136.172C574.736 136.172 573.266 137.6 573.266 139.462C573.266 141.338 574.582 142.612 576.5 142.612C577.27 142.612 578.026 142.318 578.558 141.842C578.026 143.228 576.556 143.998 574.4 143.998V146.112C578.25 146.112 580.56 143.928 580.56 140.344C580.56 137.74 579.02 136.172 576.836 136.172ZM576.864 140.512C575.828 140.512 575.044 140.05 575.044 139.42C575.044 138.804 575.842 138.328 576.892 138.328C577.928 138.328 578.712 138.804 578.712 139.42C578.712 140.05 577.914 140.512 576.864 140.512Z" fill="#CDCEB2"/>
<path d="M151.964 226.34L149.206 227.698V230.036L151.782 228.79V236H153.504V226.34H151.964ZM157.72 226.34L154.962 227.698V230.036L157.538 228.79V236H159.26V226.34H157.72Z" fill="#CDCEB2"/>
<path fill-rule="evenodd" clip-rule="evenodd" d="M69.1355 221.004C66.0483 220.899 63.2527 222.782 61.4714 225.25C59.8137 227.548 59.7476 230.44 60.341 233.191C60.9502 236.016 62.0761 238.914 64.7026 240.231C67.3919 241.58 70.5915 240.998 73.3029 239.692C75.9803 238.402 78.2913 236.265 78.8778 233.403C79.4488 230.617 77.9303 228.002 76.16 225.749C74.3357 223.427 72.1276 221.106 69.1355 221.004Z" fill="#624F41"/>
<path d="M64.9261 226.34L62.1681 227.698V230.036L64.7441 228.79V236H66.4661V226.34H64.9261ZM71.8719 236.168C74.1259 236.168 75.6939 234.124 75.6939 231.17C75.6939 228.216 74.1259 226.172 71.8719 226.172C69.6319 226.172 68.0639 228.216 68.0639 231.17C68.0639 234.124 69.6319 236.168 71.8719 236.168ZM71.8719 234.012C70.6959 234.012 69.8419 232.85 69.8419 231.17C69.8419 229.49 70.6959 228.328 71.8719 228.328C73.0899 228.328 73.9159 229.49 73.9159 231.17C73.9159 232.85 73.0899 234.012 71.8719 234.012Z" fill="#F0CBC1"/>
<path d="M232.891 226.34L230.133 227.698V230.036L232.709 228.79V236H234.431V226.34H232.891ZM239.221 233.886L241.293 231.884C241.923 231.282 242.623 230.47 242.623 229.266C242.623 227.502 241.223 226.172 239.361 226.172C237.471 226.172 236.057 227.558 236.057 229.392H237.835C237.835 228.818 238.465 228.412 239.361 228.412C240.257 228.412 240.845 228.804 240.845 229.364C240.845 229.91 240.229 230.512 239.823 230.876L236.001 234.32V236H242.679V233.886H239.221Z" fill="#CDCEB2"/>
<path d="M315.843 226.34L313.085 227.698V230.036L315.661 228.79V236H317.383V226.34H315.843ZM324.469 230.974C325.211 230.526 325.659 229.77 325.659 228.916C325.659 227.348 324.231 226.172 322.341 226.172C320.465 226.172 319.023 227.432 319.023 229.098H320.815C320.815 228.664 321.445 228.328 322.341 228.328C323.251 228.328 323.881 228.678 323.881 229.182C323.881 229.714 323.321 230.064 322.411 230.064H320.829V231.954H322.411C323.433 231.954 324.063 232.36 324.063 232.976C324.063 233.592 323.363 234.012 322.313 234.012C321.333 234.012 320.619 233.634 320.619 233.088H318.841C318.841 234.838 320.367 236.168 322.341 236.168C324.343 236.168 325.855 234.908 325.855 233.256C325.855 232.29 325.309 231.436 324.469 230.974Z" fill="#CDCEB2"/>
<path d="M401.754 226.34L398.996 227.698V230.036L401.572 228.79V236H403.294V226.34H401.754ZM412.13 232.206H411.108V226.34H408.476L404.654 232.626V234.264H409.372V236H411.108V234.264H412.13V232.206ZM406.684 232.206L409.246 228.174H409.372V232.206H406.684Z" fill="#CDCEB2"/>
<path fill-rule="evenodd" clip-rule="evenodd" d="M489.136 221.004C486.048 220.899 483.253 222.782 481.471 225.25C479.814 227.548 479.748 230.44 480.341 233.191C480.95 236.016 482.076 238.914 484.703 240.231C487.392 241.58 490.592 240.998 493.303 239.692C495.98 238.402 498.291 236.265 498.878 233.403C499.449 230.617 497.93 228.002 496.16 225.749C494.336 223.427 492.128 221.106 489.136 221.004Z" fill="#624F41"/>
<path d="M485.22 226.34L482.462 227.698V230.036L485.038 228.79V236H486.76V226.34H485.22ZM492.25 229.686C491.62 229.686 490.92 229.896 490.486 230.218L490.612 228.454H495.008V226.34H489.114L488.596 232.206H490.43C490.738 231.94 491.424 231.73 492.04 231.73C493.09 231.73 493.874 232.22 493.874 232.878C493.874 233.522 493.09 234.012 492.04 234.012C491.144 234.012 490.43 233.648 490.248 233.144H488.442C488.554 234.88 490.066 236.168 492.04 236.168C494.098 236.168 495.652 234.782 495.652 232.934C495.652 231.072 494.182 229.686 492.25 229.686Z" fill="#F0CBC1"/>
<path d="M569.87 226.34L567.112 227.698V230.036L569.688 228.79V236H571.41V226.34H569.87ZM576.872 229.728C576.158 229.728 575.444 229.994 574.912 230.414C575.444 229.112 576.872 228.342 578.832 228.342V226.228C575.192 226.228 572.812 228.706 572.812 231.996C572.812 234.6 574.338 236.168 576.536 236.168C578.622 236.168 580.106 234.74 580.106 232.878C580.106 231.086 578.72 229.728 576.872 229.728ZM576.48 234.012C575.444 234.012 574.646 233.536 574.646 232.92C574.646 232.29 575.444 231.828 576.508 231.828C577.544 231.828 578.328 232.29 578.328 232.92C578.328 233.536 577.53 234.012 576.48 234.012Z" fill="#CDCEB2"/>
<path d="M149.138 316.34L146.38 317.698V320.036L148.956 318.79V326H150.678V316.34H149.138ZM158.156 320.974C158.87 320.484 159.332 319.756 159.332 318.902C159.332 317.376 157.862 316.172 155.874 316.172C153.886 316.172 152.43 317.376 152.43 318.902C152.43 319.756 152.878 320.484 153.606 320.974C152.738 321.492 152.206 322.29 152.206 323.256C152.206 324.908 153.802 326.168 155.874 326.168C157.96 326.168 159.556 324.894 159.556 323.256C159.556 322.29 159.01 321.478 158.156 320.974ZM155.874 318.328C156.868 318.328 157.554 318.664 157.554 319.126C157.554 319.616 156.868 319.966 155.874 319.966C154.894 319.966 154.208 319.616 154.208 319.126C154.208 318.664 154.894 318.328 155.874 318.328ZM155.874 324.012C154.754 324.012 153.984 323.606 153.984 323.046C153.984 322.458 154.754 322.052 155.874 322.052C157.008 322.052 157.778 322.458 157.778 323.046C157.778 323.606 157.008 324.012 155.874 324.012Z" fill="#CDCEB2"/>
<path d="M65.5413 316.34L62.7833 317.698V320.036L65.3593 318.79V326H67.0813V316.34H65.5413ZM68.5811 316.34V318.454H73.2711L69.2531 326H71.5071L75.3431 317.964V316.34H68.5811Z" fill="#CDCEB2"/>
<path d="M232.87 316.34L230.112 317.698V320.036L232.688 318.79V326H234.41V316.34H232.87ZM239.214 316.172C237.114 316.172 235.644 317.6 235.644 319.462C235.644 321.338 236.96 322.612 238.878 322.612C239.648 322.612 240.404 322.318 240.936 321.842C240.404 323.228 238.934 323.998 236.778 323.998V326.112C240.628 326.112 242.938 323.928 242.938 320.344C242.938 317.74 241.398 316.172 239.214 316.172ZM239.242 320.512C238.206 320.512 237.422 320.05 237.422 319.42C237.422 318.804 238.22 318.328 239.27 318.328C240.306 318.328 241.09 318.804 241.09 319.42C241.09 320.05 240.292 320.512 239.242 320.512Z" fill="#CDCEB2"/>
<path d="M315.002 323.886L317.074 321.884C317.704 321.282 318.404 320.47 318.404 319.266C318.404 317.502 317.004 316.172 315.142 316.172C313.252 316.172 311.838 317.558 311.838 319.392H313.616C313.616 318.818 314.246 318.412 315.142 318.412C316.038 318.412 316.626 318.804 316.626 319.364C316.626 319.91 316.01 320.512 315.604 320.876L311.782 324.32V326H318.46V323.886H315.002ZM323.37 326.168C325.624 326.168 327.192 324.124 327.192 321.17C327.192 318.216 325.624 316.172 323.37 316.172C321.13 316.172 319.562 318.216 319.562 321.17C319.562 324.124 321.13 326.168 323.37 326.168ZM323.37 324.012C322.194 324.012 321.34 322.85 321.34 321.17C321.34 319.49 322.194 318.328 323.37 318.328C324.588 318.328 325.414 319.49 325.414 321.17C325.414 322.85 324.588 324.012 323.37 324.012Z" fill="#CDCEB2"/>
<path d="M402.465 323.886L404.537 321.884C405.167 321.282 405.867 320.47 405.867 319.266C405.867 317.502 404.467 316.172 402.605 316.172C400.715 316.172 399.301 317.558 399.301 319.392H401.079C401.079 318.818 401.709 318.412 402.605 318.412C403.501 318.412 404.089 318.804 404.089 319.364C404.089 319.91 403.473 320.512 403.067 320.876L399.245 324.32V326H405.923V323.886H402.465ZM409.793 316.34L407.035 317.698V320.036L409.611 318.79V326H411.333V316.34H409.793Z" fill="#CDCEB2"/>
<path d="M485.892 323.886L487.964 321.884C488.594 321.282 489.294 320.47 489.294 319.266C489.294 317.502 487.894 316.172 486.032 316.172C484.142 316.172 482.728 317.558 482.728 319.392H484.506C484.506 318.818 485.136 318.412 486.032 318.412C486.928 318.412 487.516 318.804 487.516 319.364C487.516 319.91 486.9 320.512 486.494 320.876L482.672 324.32V326H489.35V323.886H485.892ZM493.794 323.886L495.866 321.884C496.496 321.282 497.196 320.47 497.196 319.266C497.196 317.502 495.796 316.172 493.934 316.172C492.044 316.172 490.63 317.558 490.63 319.392H492.408C492.408 318.818 493.038 318.412 493.934 318.412C494.83 318.412 495.418 318.804 495.418 319.364C495.418 319.91 494.802 320.512 494.396 320.876L490.574 324.32V326H497.252V323.886H493.794Z" fill="#CDCEB2"/>
<path d="M569.385 323.886L571.457 321.884C572.087 321.282 572.787 320.47 572.787 319.266C572.787 317.502 571.387 316.172 569.525 316.172C567.635 316.172 566.221 317.558 566.221 319.392H567.999C567.999 318.818 568.629 318.412 569.525 318.412C570.421 318.412 571.009 318.804 571.009 319.364C571.009 319.91 570.393 320.512 569.987 320.876L566.165 324.32V326H572.843V323.886H569.385ZM579.501 320.974C580.243 320.526 580.691 319.77 580.691 318.916C580.691 317.348 579.263 316.172 577.373 316.172C575.497 316.172 574.055 317.432 574.055 319.098H575.847C575.847 318.664 576.477 318.328 577.373 318.328C578.283 318.328 578.913 318.678 578.913 319.182C578.913 319.714 578.353 320.064 577.443 320.064H575.861V321.954H577.443C578.465 321.954 579.095 322.36 579.095 322.976C579.095 323.592 578.395 324.012 577.345 324.012C576.365 324.012 575.651 323.634 575.651 323.088H573.873C573.873 324.838 575.399 326.168 577.373 326.168C579.375 326.168 580.887 324.908 580.887 323.256C580.887 322.29 580.341 321.436 579.501 320.974Z" fill="#CDCEB2"/>
<path d="M147.221 413.886L149.293 411.884C149.923 411.282 150.623 410.47 150.623 409.266C150.623 407.502 149.223 406.172 147.361 406.172C145.471 406.172 144.057 407.558 144.057 409.392H145.835C145.835 408.818 146.465 408.412 147.361 408.412C148.257 408.412 148.845 408.804 148.845 409.364C148.845 409.91 148.229 410.512 147.823 410.876L144.001 414.32V416H150.679V413.886H147.221ZM155.823 409.686C155.193 409.686 154.493 409.896 154.059 410.218L154.185 408.454H158.581V406.34H152.687L152.169 412.206H154.003C154.311 411.94 154.997 411.73 155.613 411.73C156.663 411.73 157.447 412.22 157.447 412.878C157.447 413.522 156.663 414.012 155.613 414.012C154.717 414.012 154.003 413.648 153.821 413.144H152.015C152.127 414.88 153.639 416.168 155.613 416.168C157.671 416.168 159.225 414.782 159.225 412.934C159.225 411.072 157.755 409.686 155.823 409.686Z" fill="#CDCEB2"/>
<path d="M64.8438 413.886L66.9158 411.884C67.5458 411.282 68.2458 410.47 68.2458 409.266C68.2458 407.502 66.8458 406.172 64.9838 406.172C63.0938 406.172 61.6798 407.558 61.6798 409.392H63.4578C63.4578 408.818 64.0878 408.412 64.9838 408.412C65.8798 408.412 66.4678 408.804 66.4678 409.364C66.4678 409.91 65.8518 410.512 65.4458 410.876L61.6238 414.32V416H68.3018V413.886H64.8438ZM76.6144 412.206H75.5924V406.34H72.9604L69.1384 412.626V414.264H73.8564V416H75.5924V414.264H76.6144V412.206ZM71.1684 412.206L73.7304 408.174H73.8564V412.206H71.1684Z" fill="#CDCEB2"/>
<path d="M232.481 413.886L234.553 411.884C235.183 411.282 235.883 410.47 235.883 409.266C235.883 407.502 234.483 406.172 232.621 406.172C230.731 406.172 229.317 407.558 229.317 409.392H231.095C231.095 408.818 231.725 408.412 232.621 408.412C233.517 408.412 234.105 408.804 234.105 409.364C234.105 409.91 233.489 410.512 233.083 410.876L229.261 414.32V416H235.939V413.886H232.481ZM240.836 409.728C240.122 409.728 239.408 409.994 238.876 410.414C239.408 409.112 240.836 408.342 242.796 408.342V406.228C239.156 406.228 236.776 408.706 236.776 411.996C236.776 414.6 238.302 416.168 240.5 416.168C242.586 416.168 244.07 414.74 244.07 412.878C244.07 411.086 242.684 409.728 240.836 409.728ZM240.444 414.012C239.408 414.012 238.61 413.536 238.61 412.92C238.61 412.29 239.408 411.828 240.472 411.828C241.508 411.828 242.292 412.29 242.292 412.92C242.292 413.536 241.494 414.012 240.444 414.012Z" fill="#CDCEB2"/>
<path d="M315.679 413.886L317.751 411.884C318.381 411.282 319.081 410.47 319.081 409.266C319.081 407.502 317.681 406.172 315.819 406.172C313.929 406.172 312.515 407.558 312.515 409.392H314.293C314.293 408.818 314.923 408.412 315.819 408.412C316.715 408.412 317.303 408.804 317.303 409.364C317.303 409.91 316.687 410.512 316.281 410.876L312.459 414.32V416H319.137V413.886H315.679ZM320.018 406.34V408.454H324.708L320.69 416H322.944L326.78 407.964V406.34H320.018Z" fill="#CDCEB2"/>
<path d="M399.639 413.886L401.711 411.884C402.341 411.282 403.041 410.47 403.041 409.266C403.041 407.502 401.641 406.172 399.779 406.172C397.889 406.172 396.475 407.558 396.475 409.392H398.253C398.253 408.818 398.883 408.412 399.779 408.412C400.675 408.412 401.263 408.804 401.263 409.364C401.263 409.91 400.647 410.512 400.241 410.876L396.419 414.32V416H403.097V413.886H399.639ZM410.229 410.974C410.943 410.484 411.405 409.756 411.405 408.902C411.405 407.376 409.935 406.172 407.947 406.172C405.959 406.172 404.503 407.376 404.503 408.902C404.503 409.756 404.951 410.484 405.679 410.974C404.811 411.492 404.279 412.29 404.279 413.256C404.279 414.908 405.875 416.168 407.947 416.168C410.033 416.168 411.629 414.894 411.629 413.256C411.629 412.29 411.083 411.478 410.229 410.974ZM407.947 408.328C408.941 408.328 409.627 408.664 409.627 409.126C409.627 409.616 408.941 409.966 407.947 409.966C406.967 409.966 406.281 409.616 406.281 409.126C406.281 408.664 406.967 408.328 407.947 408.328ZM407.947 414.012C406.827 414.012 406.057 413.606 406.057 413.046C406.057 412.458 406.827 412.052 407.947 412.052C409.081 412.052 409.851 412.458 409.851 413.046C409.851 413.606 409.081 414.012 407.947 414.012Z" fill="#CDCEB2"/>
<path fill-rule="evenodd" clip-rule="evenodd" d="M489.136 401.004C486.048 400.899 483.253 402.782 481.471 405.25C479.814 407.548 479.748 410.44 480.341 413.191C480.95 416.016 482.076 418.914 484.703 420.231C487.392 421.58 490.592 420.998 493.303 419.692C495.98 418.402 498.291 416.265 498.878 413.403C499.449 410.617 497.93 408.002 496.16 405.749C494.336 403.427 492.128 401.106 489.136 401.004Z" fill="#624F41"/>
<path d="M488.842 406.34L486.084 407.698V410.036L488.66 408.79V416H490.382V406.34H488.842Z" fill="#F0CBC1"/>
<path d="M572.843 413.886L574.915 411.884C575.545 411.282 576.245 410.47 576.245 409.266C576.245 407.502 574.845 406.172 572.983 406.172C571.093 406.172 569.679 407.558 569.679 409.392H571.457C571.457 408.818 572.087 408.412 572.983 408.412C573.879 408.412 574.467 408.804 574.467 409.364C574.467 409.91 573.851 410.512 573.445 410.876L569.623 414.32V416H576.301V413.886H572.843Z" fill="#CDCEB2"/>
<path d="M48.0563 256.097C47.2139 256.176 46.3666 256.188 45.5223 256.133C44.7705 256.103 44.0242 255.991 43.2967 255.799C42.7512 255.64 42.1803 255.362 41.9283 254.821C41.6585 254.244 41.8285 253.542 42.1251 253.01C42.7542 251.886 43.9422 251.221 45.09 250.728C46.4778 250.146 47.9131 249.684 49.38 249.348C52.3732 248.643 55.5468 248.465 58.5355 249.284C59.1607 249.429 59.7535 249.69 60.284 250.051C60.6835 250.349 61.0413 250.768 61.0294 251.257C61.007 251.886 60.3869 252.429 59.9337 252.804C59.3848 253.244 58.7797 253.608 58.1345 253.887C56.7378 254.523 55.2218 254.947 53.7342 255.306C52.1523 255.688 50.5446 255.955 48.9239 256.103C48.5264 256.139 48.1289 256.168 47.7314 256.191C47.2544 256.218 47.2514 256.963 47.7314 256.937C49.4939 256.837 51.2464 256.605 52.974 256.242C54.6268 255.908 56.248 255.433 57.82 254.823C58.5411 254.549 59.2299 254.196 59.8741 253.772C60.5017 253.344 61.162 252.799 61.5287 252.119C61.696 251.82 61.7763 251.48 61.7605 251.137C61.7447 250.795 61.6334 250.463 61.4393 250.181C61.0367 249.64 60.494 249.219 59.8696 248.963C59.1515 248.662 58.4013 248.444 57.6337 248.313C56.8156 248.154 55.9872 248.055 55.1548 248.015C53.4861 247.952 51.8158 248.087 50.179 248.418C48.5536 248.737 46.9599 249.201 45.4164 249.802C44.0987 250.309 42.7333 250.955 41.8493 252.096C41.3676 252.679 41.0896 253.403 41.0578 254.158C41.053 254.531 41.1414 254.899 41.315 255.229C41.4887 255.558 41.742 255.84 42.0521 256.047C42.6379 256.452 43.3668 256.615 44.0585 256.719C44.9516 256.856 45.8544 256.921 46.758 256.913C47.1933 256.913 47.6285 256.884 48.0608 256.844C48.1589 256.842 48.2524 256.802 48.3218 256.732C48.3912 256.663 48.4312 256.57 48.4335 256.471C48.4327 256.373 48.3932 256.279 48.3235 256.209C48.2537 256.139 48.1594 256.1 48.0608 256.099L48.0563 256.097Z" fill="#CDCEB2"/>
<path d="M41.0448 254.197C40.7899 257.221 41.641 260.22 43.1406 262.831C44.6998 265.533 46.8955 267.815 49.5369 269.476C52.1634 271.101 56.1181 272.196 58.6984 269.901C59.879 268.857 60.7927 267.444 61.4725 266.025C62.1605 264.582 62.6345 263.046 62.8796 261.467C63.4192 258.038 62.899 254.49 61.7631 251.227C61.6141 250.81 61.465 250.399 61.2996 249.989C61.2584 249.912 61.1955 249.85 61.1188 249.809C61.0421 249.769 60.9551 249.752 60.8688 249.761C60.7585 249.761 60.5036 249.843 60.5706 250.008C61.8377 253.173 62.5681 256.603 62.2983 260.022C62.0568 263.091 61.0029 266.134 59.0591 268.538C58.5973 269.15 58.0342 269.678 57.3941 270.1C56.708 270.498 55.9302 270.71 55.1373 270.716C53.6362 270.764 52.156 270.314 50.8398 269.626C49.4938 268.904 48.2559 267.996 47.1624 266.93C46.0947 265.917 45.1482 264.783 44.3421 263.552C42.7575 261.131 41.7275 258.283 41.7335 255.365C41.7335 255.012 41.7513 254.657 41.7812 254.304C41.808 253.984 41.0701 253.884 41.0433 254.197H41.0448Z" fill="#CDCEB2"/>
<path d="M55.7488 271.153C56.8256 274.269 57.719 277.446 58.4245 280.668C58.6233 281.577 58.8071 282.49 58.9761 283.406C58.9891 283.453 59.0113 283.497 59.0414 283.536C59.0714 283.574 59.1088 283.607 59.1514 283.631C59.194 283.655 59.2409 283.67 59.2894 283.677C59.338 283.683 59.3873 283.679 59.4345 283.666C59.4816 283.653 59.5258 283.631 59.5644 283.601C59.603 283.571 59.6353 283.533 59.6594 283.491C59.6836 283.448 59.6991 283.401 59.7052 283.353C59.7112 283.304 59.7076 283.255 59.6946 283.208C59.0968 279.965 58.3094 276.761 57.3364 273.611C57.0621 272.716 56.7729 271.832 56.4688 270.956C56.4404 270.862 56.3768 270.782 56.2914 270.734C56.2059 270.685 56.1051 270.671 56.0097 270.695C55.9149 270.722 55.8344 270.785 55.7856 270.871C55.7368 270.956 55.7236 271.058 55.7488 271.153Z" fill="#CDCEB2"/>
<path d="M44.6055 264.288C46.0127 264.437 47.7209 264.53 48.7793 263.404C49.2265 262.927 49.5112 262.337 49.8838 261.805C50.1999 261.358 50.6366 260.957 51.215 260.955C51.7933 260.954 52.3389 261.253 52.8442 261.526C53.4181 261.824 54.004 262.16 54.6479 262.291C55.0087 262.38 55.3857 262.38 55.7465 262.291C56.1758 262.167 56.4546 261.884 56.7005 261.525C57.094 260.913 57.6821 260.451 58.37 260.214C59.1511 259.958 59.9292 260.123 60.7178 260.24C61.5063 260.356 62.3873 260.389 63.0417 259.827C63.3816 259.529 62.8464 259.019 62.5215 259.299C62.0087 259.746 61.2917 259.639 60.6716 259.547C59.9382 259.436 59.2108 259.298 58.4714 259.456C57.7409 259.608 57.0728 259.976 56.5529 260.511C56.301 260.776 56.1311 261.107 55.8881 261.374C55.6451 261.641 55.3083 261.693 54.9639 261.659C54.3677 261.601 53.8087 261.288 53.284 261.009C52.7205 260.711 52.1466 260.399 51.5086 260.298C51.2002 260.248 50.8845 260.268 50.5847 260.356C50.2848 260.443 50.0082 260.597 49.775 260.805C49.2935 261.233 49.0029 261.823 48.657 262.353C48.2546 262.971 47.7433 263.41 47.0173 263.579C46.2228 263.764 45.394 263.688 44.5906 263.603C44.5459 263.598 44.5007 263.603 44.4581 263.617C44.4154 263.632 44.3762 263.654 44.3429 263.685C44.3097 263.715 44.2831 263.752 44.2649 263.793C44.2467 263.834 44.2373 263.878 44.2373 263.923C44.2449 264.019 44.2864 264.109 44.3545 264.177C44.4226 264.244 44.5127 264.286 44.6085 264.293L44.6055 264.288Z" fill="#CDCEB2"/>
<path d="M57.9537 280.231C56.1962 280.448 54.4969 281.508 53.6308 283.075C53.364 283.51 53.2448 284.02 53.291 284.528C53.3642 284.961 53.5729 285.36 53.8872 285.667C54.5893 286.393 55.6343 286.612 56.5987 286.736C58.4262 286.97 60.3596 286.988 62.1141 286.333C62.9867 286.025 63.7703 285.508 64.3962 284.826C64.9776 284.162 65.3666 283.233 65.0789 282.353C64.7525 281.361 63.7895 280.754 62.8817 280.354C61.7674 279.868 60.5579 279.639 59.343 279.684C59.2088 279.684 59.0046 279.742 59.0359 279.916C59.0672 280.091 59.3191 280.162 59.4577 280.158C60.381 280.122 61.3024 280.265 62.1707 280.581C62.9041 280.851 63.6897 281.243 64.1354 281.914C64.6019 282.619 64.4752 283.461 64.037 284.15C63.5723 284.825 62.9308 285.36 62.1826 285.695C60.7054 286.403 59.018 286.491 57.4126 286.36C56.5927 286.295 55.6641 286.232 54.9381 285.81C54.2122 285.388 53.847 284.618 54.1078 283.799C54.3836 282.938 55.0932 282.179 55.8116 281.657C56.529 281.135 57.367 280.803 58.2473 280.693C58.3964 280.675 58.5201 280.551 58.4352 280.407C58.3502 280.262 58.1102 280.214 57.9492 280.234L57.9537 280.231Z" fill="#CDCEB2"/>
<path fill-rule="evenodd" clip-rule="evenodd" d="M461.772 265.667C461.496 264.887 460.985 264.212 460.31 263.734C459.634 263.256 458.827 263 458 263V262H456V263C454.939 263 453.922 263.421 453.172 264.172C452.421 264.922 452 265.939 452 267C452 268.061 452.421 269.078 453.172 269.828C453.922 270.579 454.939 271 456 271V275C455.13 275 454.389 274.445 454.113 273.667C454.072 273.54 454.006 273.422 453.919 273.321C453.831 273.219 453.725 273.137 453.605 273.077C453.485 273.018 453.355 272.983 453.221 272.975C453.088 272.967 452.954 272.986 452.828 273.03C452.702 273.075 452.586 273.144 452.487 273.234C452.388 273.324 452.309 273.433 452.253 273.555C452.197 273.676 452.166 273.808 452.162 273.941C452.157 274.075 452.18 274.208 452.228 274.333C452.504 275.113 453.015 275.788 453.69 276.266C454.366 276.744 455.173 277 456 277V278H458V277C459.061 277 460.078 276.579 460.828 275.828C461.579 275.078 462 274.061 462 273C462 271.939 461.579 270.922 460.828 270.172C460.078 269.421 459.061 269 458 269V265C458.414 265 458.817 265.128 459.155 265.367C459.493 265.605 459.748 265.943 459.886 266.333C459.974 266.583 460.158 266.788 460.398 266.902C460.516 266.959 460.645 266.992 460.776 266.999C460.907 267.006 461.038 266.987 461.162 266.943C461.286 266.899 461.4 266.832 461.498 266.744C461.595 266.656 461.675 266.55 461.731 266.431C461.788 266.313 461.821 266.184 461.828 266.053C461.835 265.922 461.816 265.791 461.772 265.667ZM456 265C455.47 265 454.961 265.211 454.586 265.586C454.211 265.961 454 266.47 454 267C454 267.53 454.211 268.039 454.586 268.414C454.961 268.789 455.47 269 456 269V265ZM458 275C458.53 275 459.039 274.789 459.414 274.414C459.789 274.039 460 273.53 460 273C460 272.47 459.789 271.961 459.414 271.586C459.039 271.211 458.53 271 458 271V275Z" fill="#CDCEB2"/>
<path fill-rule="evenodd" clip-rule="evenodd" d="M446.153 249.621C448.607 248.42 452.633 247 457.039 247C461.353 247 465.273 248.361 467.714 249.546L467.852 249.613C468.588 249.977 469.182 250.321 469.6 250.6L465.906 256C474.422 264.706 481 282.997 457.039 282.997C433.078 282.997 439.479 265.038 448.069 256L444.399 250.6C444.682 250.415 445.041 250.2 445.469 249.972C445.681 249.858 445.909 249.741 446.153 249.622V249.621ZM463.532 255.928L466.489 251.605C463.739 251.803 460.467 252.449 457.317 253.361C455.067 254.011 452.567 253.912 450.252 253.485C449.669 253.377 449.089 253.248 448.515 253.099L450.435 255.926C454.55 257.391 459.416 257.391 463.532 255.928ZM449.28 257.63C454.095 259.49 459.882 259.49 464.697 257.628C466.707 259.747 468.388 262.154 469.685 264.771C471.037 267.529 471.773 270.286 471.653 272.662C471.537 274.955 470.635 276.914 468.575 278.37C466.428 279.887 462.817 280.997 457.038 280.997C451.253 280.997 447.625 279.906 445.458 278.406C443.383 276.968 442.472 275.036 442.343 272.774C442.208 270.424 442.928 267.681 444.275 264.904C445.56 262.256 447.353 259.707 449.28 257.63ZM448.13 250.916C448.93 251.154 449.766 251.361 450.614 251.518C452.764 251.914 454.92 251.972 456.76 251.439C458.904 250.814 461.085 250.323 463.29 249.968C461.45 249.414 459.298 249 457.038 249C453.593 249 450.38 249.961 448.13 250.916Z" fill="#CDCEB2"/>
<line x1="2" y1="130" x2="589.001" y2="130" stroke="#624F41" stroke-width="2"/>
<line x1="2" y1="220" x2="589.001" y2="220" stroke="#624F41" stroke-width="2"/>
<line x1="2" y1="310" x2="589.001" y2="310" stroke="#624F41" stroke-width="2"/>
<line x1="2" y1="400" x2="589.001" y2="400" stroke="#624F41" stroke-width="2"/>
<line x1="80" y1="489.012" x2="80" y2="129" stroke="#624F41" stroke-width="2"/>
<line x1="164" y1="489.012" x2="164" y2="129" stroke="#624F41" stroke-width="2"/>
<line x1="248" y1="489.012" x2="248" y2="129" stroke="#624F41" stroke-width="2"/>
<line x1="332" y1="489.012" x2="332" y2="129" stroke="#624F41" stroke-width="2"/>
<line x1="416" y1="489.012" x2="416" y2="129" stroke="#624F41" stroke-width="2"/>
<line x1="500" y1="489.012" x2="500" y2="129" stroke="#624F41" stroke-width="2"/>
</svg>
